<svg id="Layer_1_1_" enable-background="new 0 0 64 64" height="512" viewBox="0 0 64 64" width="512" xmlns="http://www.w3.org/2000/svg"><path d="m29.464 4.423c-.189-.189-.44-.293-.707-.293s-.518.104-.707.293l-22.627 22.627c-.189.189-.293.44-.293.707s.104.518.293.707l2.121 2.122 24.042-24.042z"/><path d="m16.736 8.666c.389-.389 1.024-.39 1.415 0l2.121 2.121 1.414-1.414-2.121-2.121c-1.171-1.171-3.074-1.17-4.243 0l-7.071 7.071c-1.17 1.17-1.17 3.073 0 4.243l2.121 2.121 1.414-1.414-2.121-2.121c-.39-.39-.39-1.024 0-1.415z"/><path d="m32 54c.551 0 1-.449 1-1v-22c0-.551-.449-1-1-1s-1 .449-1 1v22c0 .551.449 1 1 1z"/><path d="m40 54c.551 0 1-.449 1-1v-22c0-.551-.449-1-1-1s-1 .449-1 1v22c0 .551.449 1 1 1z"/><path d="m15.351 25.607 4.411 33.524c.065.496.492.87.992.87h22.492c.5 0 .926-.374.992-.87l4.622-35.131h-31.902zm21.649 5.393c0-1.654 1.346-3 3-3s3 1.346 3 3v22c0 1.654-1.346 3-3 3s-3-1.346-3-3zm-8 0c0-1.654 1.346-3 3-3s3 1.346 3 3v22c0 1.654-1.346 3-3 3s-3-1.346-3-3zm-8 0c0-1.654 1.346-3 3-3s3 1.346 3 3v22c0 1.654-1.346 3-3 3s-3-1.346-3-3z"/><path d="m24 54c.551 0 1-.449 1-1v-22c0-.551-.449-1-1-1s-1 .449-1 1v22c0 .551.449 1 1 1z"/><path d="m30 17 4 2h5l-2-5-4-1z"/><path d="m48 10-5 1v2l1 4 8-1-3-4z"/><path d="m44 2h2v2h-2z"/><path d="m52.804 8.207 1.219 1.586c2.211-1.698 5.048-2.358 7.781-1.813l.393-1.961c-3.304-.66-6.726.138-9.393 2.188z"/><path d="m57 12h2v2h-2z"/><path d="m53 4v-2c-2.757 0-5 2.243-5 5h2c0-1.654 1.346-3 3-3z"/></svg>