<svg id="Layer_1" enable-background="new 0 0 64 64" height="512" viewBox="0 0 64 64" width="512" xmlns="http://www.w3.org/2000/svg"><path d="m44.567 48.238c-2.586 4.48-7.401 7.262-12.567 7.262-.276 0-.5.224-.5.5s.224.5.5.5c5.522 0 10.67-2.975 13.433-7.762.139-.239.057-.545-.183-.683-.238-.137-.545-.056-.683.183z"/><path d="m17.854 18.5c.206 0 .398-.128.472-.333 2.043-5.782 7.538-9.667 13.674-9.667.276 0 .5-.224.5-.5s-.224-.5-.5-.5c-6.559 0-12.433 4.152-14.618 10.333-.092.261.045.546.305.639.055.019.111.028.167.028z"/><path d="m46.575 17.533c-.258-.099-.547.029-.646.287s.029.547.287.646c5.553 2.142 9.284 7.581 9.284 13.534 0 .276.224.5.5.5s.5-.224.5-.5c0-6.363-3.988-12.178-9.925-14.467z"/><path d="m34.233 19.173c.244-.129.338-.432.209-.676-.13-.245-.434-.336-.676-.209-5.099 2.695-8.266 7.949-8.266 13.712 0 1.92.842 3.643 2.17 4.834-3.599-1.123-6.675-3.619-8.497-7.067-.13-.245-.434-.337-.676-.209-.244.129-.338.432-.209.676 2.695 5.099 7.949 8.266 13.712 8.266 1.92 0 3.644-.842 4.835-2.171-1.234 3.945-4.119 7.254-8.035 8.965-.253.11-.368.405-.258.658.082.188.266.3.458.3.067 0 .135-.014.2-.042 5.649-2.468 9.3-8.046 9.3-14.21 0-1.915-.838-3.634-2.16-4.825 4.135 1.313 7.589 4.45 9.193 8.609.077.198.267.32.467.32.06 0 .121-.011.18-.033.258-.1.386-.389.287-.646-2.289-5.937-8.104-9.925-14.467-9.925-1.92 0-3.643.842-4.834 2.17 1.123-3.599 3.619-6.675 7.067-8.497zm-5.759 17.043c.479.173.988.284 1.526.284 2.309 0 4.195-1.754 4.449-3.997.033-.162.051-.331.051-.503 0-.169-.018-.333-.05-.493.646.635 1.05 1.517 1.05 2.493 0 1.93-1.57 3.5-3.5 3.5-1.341 0-2.57-.484-3.526-1.284zm4.995-3.914c-.14.683-.745 1.198-1.469 1.198-.103 0-.201-.022-.302-.031-.683-.14-1.198-.745-1.198-1.469 0-.103.022-.201.031-.302.14-.683.745-1.198 1.469-1.198.103 0 .201.022.302.031.683.14 1.198.745 1.198 1.469 0 .103-.022.201-.031.302zm2.747 3.224c.173-.479.284-.988.284-1.526 0-2.309-1.754-4.195-3.997-4.449-.162-.033-.331-.051-.503-.051-.169 0-.333.018-.493.05.635-.646 1.517-1.05 2.493-1.05 1.93 0 3.5 1.57 3.5 3.5 0 1.341-.484 2.57-1.284 3.526zm-.69-7.742c-.479-.173-.988-.284-1.526-.284-2.309 0-4.195 1.754-4.449 3.997-.033.162-.051.331-.051.503 0 .169.018.333.05.493-.647-.635-1.05-1.517-1.05-2.493 0-1.93 1.57-3.5 3.5-3.5 1.341 0 2.57.484 3.526 1.284zm-7.742.69c-.173.479-.284.988-.284 1.526 0 2.309 1.754 4.195 3.997 4.449.162.033.331.051.503.051.169 0 .333-.018.493-.05-.635.647-1.517 1.05-2.493 1.05-1.93 0-3.5-1.57-3.5-3.5 0-1.341.484-2.57 1.284-3.526z"/><path d="m16.8 46.21c.065.028.133.042.2.042.192 0 .376-.112.458-.3.11-.253-.005-.548-.258-.658-5.285-2.309-8.7-7.527-8.7-13.294 0-.276-.224-.5-.5-.5s-.5.224-.5.5c0 6.164 3.65 11.742 9.3 14.21z"/><path d="m36.5 17c0 1.402 1.537 2.5 3.5 2.5s3.5-1.098 3.5-2.5-1.537-2.5-3.5-2.5-3.5 1.098-3.5 2.5zm6 0c0 .813-1.145 1.5-2.5 1.5s-2.5-.687-2.5-1.5 1.145-1.5 2.5-1.5 2.5.687 2.5 1.5z"/><path d="m23 49.5c1.963 0 3.5-1.098 3.5-2.5s-1.537-2.5-3.5-2.5-3.5 1.098-3.5 2.5 1.537 2.5 3.5 2.5zm0-4c1.355 0 2.5.687 2.5 1.5s-1.145 1.5-2.5 1.5-2.5-.687-2.5-1.5 1.145-1.5 2.5-1.5z"/><path d="m17 27.5c1.402 0 2.5-1.537 2.5-3.5s-1.098-3.5-2.5-3.5-2.5 1.537-2.5 3.5 1.098 3.5 2.5 3.5zm0-6c.813 0 1.5 1.145 1.5 2.5s-.687 2.5-1.5 2.5-1.5-1.145-1.5-2.5.687-2.5 1.5-2.5z"/><path d="m47 38.5c-1.402 0-2.5 1.537-2.5 3.5s1.098 3.5 2.5 3.5 2.5-1.537 2.5-3.5-1.098-3.5-2.5-3.5zm0 6c-.813 0-1.5-1.145-1.5-2.5s.687-2.5 1.5-2.5 1.5 1.145 1.5 2.5-.687 2.5-1.5 2.5z"/><circle cx="20" cy="38" r="1"/><circle cx="14" cy="12" r="1"/><circle cx="45" cy="26" r="1"/><path d="m56 9.5h-1.5v-1.5c0-.276-.224-.5-.5-.5s-.5.224-.5.5v1.5h-1.5c-.276 0-.5.224-.5.5s.224.5.5.5h1.5v1.5c0 .276.224.5.5.5s.5-.224.5-.5v-1.5h1.5c.276 0 .5-.224.5-.5s-.224-.5-.5-.5z"/><path d="m8 54.5h1.5v1.5c0 .276.224.5.5.5s.5-.224.5-.5v-1.5h1.5c.276 0 .5-.224.5-.5s-.224-.5-.5-.5h-1.5v-1.5c0-.276-.224-.5-.5-.5s-.5.224-.5.5v1.5h-1.5c-.276 0-.5.224-.5.5s.224.5.5.5z"/><circle cx="53" cy="52" r="1"/></svg>