<svg width="306" height="150" viewBox="0 0 306 150" fill="none" xmlns="http://www.w3.org/2000/svg">
<path d="M305.5 75C305.5 80.0255 303.32 84.9715 299.324 89.7962C295.326 94.6223 289.532 99.2987 282.367 103.769C268.037 112.71 248.305 120.775 226.743 127.556C183.616 141.118 133.292 149.5 104.5 149.5C75.7358 149.5 49.7155 141.132 30.8989 127.627C12.0814 114.121 0.5 95.5084 0.5 75C0.5 54.4916 12.0814 35.8786 30.8989 22.3732C49.7155 8.86843 75.7358 0.5 104.5 0.5C133.292 0.5 183.616 8.88221 226.743 22.444C248.305 29.2245 268.037 37.2901 282.367 46.2308C289.532 50.7013 295.326 55.3777 299.324 60.2038C303.32 65.0285 305.5 69.9745 305.5 75Z" fill="#F5F7FB" stroke="#DEDEDE"/>
</svg>
