<svg width="288" height="157" viewBox="0 0 288 157" fill="none" xmlns="http://www.w3.org/2000/svg">
<path d="M0.5 37.5C0.5 27.4698 8.42493 20.1319 21.5452 14.7853C34.6384 9.44963 52.7086 6.18695 72.563 4.21454C105.257 0.966599 142.664 1.22713 170.398 1.4203C176.342 1.4617 181.842 1.5 186.757 1.5C214.479 1.5 239.558 9.86607 257.694 23.3681C275.831 36.87 287 55.4836 287 76C287 96.442 270.105 116.562 246.099 131.609C222.123 146.638 191.214 156.5 163.5 156.5C149.692 156.5 132.593 151.651 114.683 143.696C96.7835 135.745 78.1151 124.71 61.1797 112.379C44.2428 100.047 29.0546 86.4311 18.1064 73.3259C7.13864 60.1975 0.5 47.6689 0.5 37.5Z" fill="#F5F7FB" stroke="#DEDEDE"/>
</svg>
