<?xml version="1.0"?>
<svg xmlns="http://www.w3.org/2000/svg" xmlns:xlink="http://www.w3.org/1999/xlink" version="1.1" id="Layer_1" x="0px" y="0px" viewBox="0 0 490.667 490.667" style="enable-background:new 0 0 490.667 490.667;" xml:space="preserve" width="512px" height="512px" class=""><g><g>
	<g>
		<path d="M437.333,10.667h-384C23.936,10.667,0,34.603,0,64v277.333c0,29.397,23.936,53.333,53.333,53.333h181.333v64H96    c-5.888,0-10.667,4.779-10.667,10.667C85.333,475.221,90.112,480,96,480h298.667c5.888,0,10.667-4.779,10.667-10.667    c0-5.888-4.779-10.667-10.667-10.667H256v-64h181.333c29.397,0,53.333-23.936,53.333-53.333V64    C490.667,34.603,466.731,10.667,437.333,10.667z M469.333,288h-448V64c0-17.643,14.357-32,32-32h384c17.643,0,32,14.357,32,32V288    z" data-original="#000000" class="active-path" data-old_color="#000000" fill="#393E41"/>
	</g>
</g></g> </svg>
