<?xml version="1.0" encoding="utf-8"?>
<!-- Generator: Adobe Illustrator 23.0.2, SVG Export Plug-In . SVG Version: 6.00 Build 0)  -->
<svg version="1.1" id="Calque_1" xmlns="http://www.w3.org/2000/svg" xmlns:xlink="http://www.w3.org/1999/xlink" x="0px" y="0px"
	 viewBox="0 0 1200 580" style="enable-background:new 0 0 1200 580;" xml:space="preserve">
<style type="text/css">
	.st0{fill:#FFFA72;}
	.st1{fill:#EAEAFF;}
	.st2{fill:#D5D5FF;}
	.st3{fill:#BFBFFF;}
	.st4{fill:#AAAAFF;}
	.st5{fill:#9595FF;}
	.st6{fill:#8080FF;}
	.st7{fill:#6A6AFF;}
	.st8{fill:#5555FF;}
	.st9{fill:#4040FF;}
	.st10{fill:#2A2AFF;}
	.st11{fill:#1515FF;}
	.st12{fill:#0000FF;}
</style>
<path class="st0" d="M-180.5-35.4c-28.7,61.7-23.3,100.4,16.3,116.1c59.3,23.5,200.3,32.9,259.3,83.9c59,51,238.7,11.6,269.4-75.9
	c30.7-87.5,86.1-222.4-205.8-222.4C-35.8-133.7-148.9-100.9-180.5-35.4L-180.5-35.4z"/>
<path class="st1" d="M-602.7,86.5c19.4,172.8,97.2,281.2,233.2,325.1c204.1,65.8,614.2,92.2,861.7,234.9
	c247.5,142.8,687.1,32.4,631.6-212.7c-55.4-245.1-118.5-622.8-935.7-622.8C-356.7-188.9-620.3-97.1-602.7,86.5L-602.7,86.5z"/>
<path class="st2" d="M-571,76.3c9.1,163.6,76.9,266.1,203.3,307.6c189.6,62.3,576.3,87.2,802.9,222.4
	c226.6,135.1,648.5,30.7,609.2-201.3c-39.3-231.9-78.7-589.4-852.1-589.4C-323.4-184.3-577.8-97.4-571,76.3L-571,76.3z"/>
<path class="st3" d="M-538.6,66.2c0.2,154.3,58.9,251.1,176,290.2c175.7,58.8,539.2,82.3,746.1,209.8
	c206.8,127.5,610.2,28.9,585.1-189.9c-25.2-218.8-44.1-556.1-773.7-556.1C-291.6-179.7-536.1-97.8-538.6,66.2L-538.6,66.2z"/>
<path class="st4" d="M-505.4,56c-7.3,145.1,43.1,236,151.3,272.8c162.3,55.2,502.9,77.3,691,197.2
	c188.2,119.8,572.2,27.2,559.2-178.5c-13-205.7-14.2-522.7-700.1-522.7C-261.2-175.1-495-98.1-505.4,56L-505.4,56z"/>
<path class="st5" d="M-471.5,45.9c-13.7,135.8,29.2,220.9,128.8,255.4c149.3,51.7,467.1,72.4,637.6,184.6
	c170.5,112.2,534.4,25.5,531.9-167.1c-2.5-192.5,11.3-489.3-630.8-489.3C-232-170.5-454.5-98.4-471.5,45.9L-471.5,45.9z"/>
<path class="st6" d="M-437,35.7c-18.9,126.5,17.2,205.9,108.4,238c136.8,48.2,432,67.5,585.8,172C411,550.3,754,469.4,760.5,290
	c6.4-179.4,32.7-456-565.6-456C-204-165.9-414.6-98.7-437,35.7L-437,35.7z"/>
<path class="st7" d="M-401.9,25.6c-23.1,117.3,6.9,190.8,90,220.6c124.7,44.7,397.4,62.5,535.4,159.4c138,96.9,459.4,22,473.3-144.3
	C710.6,95,747.1-161.3,192.6-161.3C-177.1-161.3-375.3-99-401.9,25.6L-401.9,25.6z"/>
<path class="st8" d="M-366.2,15.4c-26.3,108-1.8,175.7,73.5,203.2c112.9,41.1,363.4,57.6,486.3,146.8
	c122.9,89.2,422.2,20.3,442.1-132.9C655.5,79.3,700-156.7,189.3-156.7C-151.2-156.7-336.4-99.4-366.2,15.4L-366.2,15.4z"/>
<path class="st9" d="M-330.1,5.3C-358.6,104-339,165.9-271.3,191c101.5,37.6,329.8,52.7,438.6,134.2
	C276,406.8,552.5,343.8,577,203.7c24.5-140,75-355.9-392-355.9C-126.3-152.1-298-99.7-330.1,5.3L-330.1,5.3z"/>
<path class="st10" d="M-293.4-4.9c-29.8,89.5-14.6,145.6,45.8,168.3c90.5,34.1,296.8,47.7,392,121.7
	C239.6,359,492.7,301.9,520.6,175c27.9-126.9,82.4-322.5-340.8-322.5C-102.4-147.5-260.1-100-293.4-4.9L-293.4-4.9z"/>
<path class="st11" d="M-256.2-15.1c-30.3,80.2-18.8,130.5,34.4,150.9c79.8,30.6,264.2,42.8,346.6,109.1
	c82.4,66.3,311.6,15,341.6-98.7c30-113.8,86.6-289.1-292.8-289.1C-79.3-142.9-222.6-100.3-256.2-15.1L-256.2-15.1z"/>
<path class="st12" d="M-218.6-25.2c-29.9,71-21.7,115.5,24.5,133.5c69.4,27,232.1,37.8,302.4,96.5c70.4,58.6,275.1,13.3,306-87.3
	c31-100.7,87.8-255.8-247.8-255.8C-57.2-138.3-185.6-100.6-218.6-25.2L-218.6-25.2z"/>
</svg>
