<svg width="1042" height="767" viewBox="0 0 1042 767" fill="none" xmlns="http://www.w3.org/2000/svg">
<g clip-path="url(#clip0)">
<path opacity="0.5" d="M987.594 622.807C985.967 616.093 980.625 611.035 976.692 605.352C971.965 598.346 969.202 590.201 968.691 581.765C968.181 573.329 969.941 564.91 973.789 557.385C977.571 550.189 983.5 542.748 981.353 534.891C979.916 529.605 975.141 525.984 970.451 523.147C952.635 512.418 932.071 507.13 911.289 507.933C885.816 508.974 860.429 519.148 835.448 514.108C811.119 509.182 790.506 496.984 765.052 495.537C746.037 494.46 727.231 495.67 708.178 493.59C661.102 488.483 613.68 487.351 566.414 490.205C519.151 487.351 471.732 488.483 424.659 493.59C405.654 495.67 386.837 494.46 367.785 495.537C342.255 496.975 321.69 509.191 297.352 514.108C272.361 519.157 246.983 508.974 221.51 507.933C200.728 507.13 180.164 512.418 162.348 523.147C157.62 525.984 152.893 529.605 151.446 534.891C149.309 542.739 155.228 550.18 159.01 557.385C162.861 564.908 164.624 573.326 164.117 581.762C163.61 590.198 160.851 598.344 156.126 605.352C152.193 611.025 146.851 616.093 145.224 622.807C141.953 636.309 155.077 648.204 167.917 653.565C202.949 668.211 245.555 661.129 277.6 681.525C291.962 690.677 304.528 705.371 321.548 705.919C333.055 706.288 343.522 699.896 353.573 694.27C368.614 685.85 384.337 678.711 400.576 672.93C414.759 667.881 429.784 663.834 444.752 665.507C467.605 668.032 566.395 715.763 610.93 687.557C641.433 668.221 665.222 668.06 688.133 665.498C703.101 663.824 718.116 667.871 732.308 672.92C748.547 678.702 764.27 685.841 779.311 694.261C789.353 699.887 799.829 706.279 811.336 705.91C828.356 705.362 840.922 690.668 855.285 681.515C887.31 661.11 929.907 668.202 964.967 653.556C977.741 648.176 990.875 636.318 987.594 622.807Z" fill="url(#paint0_linear)"/>
<path d="M982.961 622.532C981.353 615.914 976.068 610.883 972.182 605.267C967.516 598.334 964.792 590.277 964.293 581.935C963.794 573.593 965.539 565.269 969.345 557.829C973.127 550.709 978.952 543.353 976.834 535.59C975.406 530.361 970.688 526.778 966.055 523.979C948.435 513.366 928.098 508.133 907.545 508.926C882.356 509.947 857.252 520.017 832.535 515.025C808.462 510.165 788.095 498.081 762.878 496.653C744.071 495.594 725.434 496.785 706.637 494.762C660.079 489.712 613.179 488.592 566.433 491.415C519.687 488.592 472.786 489.712 426.228 494.762C407.431 496.823 388.795 495.622 369.988 496.653C344.78 498.071 324.404 510.155 300.33 515.025C275.623 520.017 250.51 509.947 225.321 508.926C204.767 508.133 184.43 513.366 166.811 523.979C162.178 526.816 157.46 530.361 156.032 535.59C153.914 543.353 159.814 550.719 163.52 557.829C167.327 565.269 169.071 573.593 168.572 581.935C168.073 590.277 165.35 598.334 160.684 605.267C156.788 610.883 151.512 615.885 149.905 622.532C146.586 635.883 159.568 647.646 172.248 652.903C206.902 667.379 249.035 660.373 280.701 680.551C294.884 689.599 307.337 704.142 324.196 704.681C335.542 705.049 345.943 698.724 355.871 693.155C370.748 684.824 386.301 677.761 402.363 672.041C416.404 667.039 431.249 663.039 446.056 664.694C468.749 667.228 566.423 714.401 610.428 686.507C640.601 667.389 664.126 667.228 686.781 664.694C701.588 663.039 716.442 667.039 730.474 672.041C746.536 677.761 762.089 684.824 776.966 693.155C786.904 698.714 797.257 705.04 808.641 704.681C825.472 704.142 837.906 689.609 852.136 680.551C883.812 660.373 925.945 667.379 960.589 652.903C973.222 647.646 986.204 635.883 982.961 622.532Z" fill="#00AEC8"/>
<path opacity="0.6" d="M175.037 336.281C177.741 335.335 180.616 334.437 183.443 334.929C188.17 335.751 191.489 340.233 192.898 344.838C194.307 349.443 194.26 354.293 195.158 359.021C196.056 363.748 198.203 368.637 202.439 370.897C206.675 373.157 211.676 372.268 216.376 371.719C222.539 371.009 228.761 370.952 234.937 371.549C240.118 372.05 246.208 373.8 247.73 378.783C248.978 382.848 246.501 386.999 244.893 390.923C241.811 398.261 241.565 406.931 245.092 414.061C248.619 421.19 255.767 426.504 258.755 434.03C259.621 435.913 259.872 438.02 259.473 440.053C259.031 441.477 258.304 442.796 257.336 443.93C254.992 446.946 252.193 449.603 250.056 452.78C245.602 459.399 244.383 467.625 243.872 475.577C243.363 483.396 243.407 491.242 244.004 499.055C238.199 497.164 231.788 498.847 225.803 497.608C213.066 494.98 205.114 479.908 192.142 478.991C186.005 478.556 179.405 481.449 173.931 478.641C171.315 477.134 169.268 474.808 168.106 472.022C165.792 467.091 165.264 461.509 166.612 456.231C167.558 452.582 169.449 449.008 169.08 445.254C168.768 442.039 166.839 439.202 164.627 436.848C158.32 430.154 149.167 426.059 144.638 418.051C142.578 414.246 141.718 409.908 142.172 405.605C142.627 401.303 144.373 397.239 147.181 393.949C148.798 392.371 150.329 390.708 151.767 388.966C153.942 385.902 154.604 382.035 154.897 378.281C155.521 369.289 153.951 359.768 156.892 351.031C159.53 343.126 167.586 338.928 175.037 336.281Z" fill="#00AEC8"/>
<path opacity="0.6" d="M175.169 336.545C175.169 336.545 200.992 479.955 234.521 497.06" stroke="#535461" stroke-miterlimit="10"/>
<path opacity="0.6" d="M247.011 376.239C247.011 376.239 219.354 380.021 191.726 408.435" stroke="#535461" stroke-miterlimit="10"/>
<path opacity="0.6" d="M196.586 425.095C196.586 425.095 175.302 404.293 142.047 407.82" stroke="#535461" stroke-miterlimit="10"/>
<path opacity="0.6" d="M259.19 434.144C259.19 434.144 220.347 437.444 205.966 452.355" stroke="#535461" stroke-miterlimit="10"/>
<path opacity="0.6" d="M211.781 466.245C211.781 466.245 190.033 462.462 169.959 475.275" stroke="#535461" stroke-miterlimit="10"/>
<path opacity="0.6" d="M974.479 223.629C970.139 222.088 965.534 220.679 961.005 221.464C953.441 222.788 948.108 229.974 945.877 237.34C943.645 244.705 943.692 252.563 942.255 260.127C940.818 267.691 937.376 275.53 930.587 279.161C923.798 282.792 915.78 281.354 908.244 280.484C898.374 279.334 888.409 279.229 878.517 280.172C870.205 280.976 860.457 283.784 858.017 291.765C856.022 298.289 859.984 304.927 862.632 311.214C867.577 322.967 867.974 336.876 862.31 348.308C856.552 359.938 845.196 368.259 840.411 380.314C839.201 383.378 838.435 386.772 839.258 389.959C839.967 392.244 841.135 394.361 842.69 396.18C846.472 401.021 850.935 405.286 854.358 410.363C861.497 420.953 863.435 434.153 864.267 446.899C865.085 459.429 865.015 472.001 864.059 484.522C873.363 481.458 883.651 484.191 893.239 482.215C913.653 478.007 926.399 453.849 947.191 452.374C957.025 451.683 967.605 456.307 976.38 451.806C980.653 449.613 983.689 445.518 985.722 441.16C989.37 433.258 990.168 424.337 987.981 415.914C986.44 410.061 983.443 404.34 984.029 398.317C984.53 393.164 987.613 388.616 991.168 384.853C1001.28 374.121 1015.95 367.559 1023.21 354.728C1030.02 342.701 1028.3 326.428 1019.14 316.093C1016.74 313.38 1013.88 311.054 1011.78 308.104C1008.29 303.196 1007.18 296.994 1006.76 290.98C1005.77 276.56 1008.22 261.309 1003.55 247.306C999.299 234.56 986.393 227.818 974.479 223.629Z" fill="#00AEC8"/>
<path opacity="0.6" d="M974.233 224.008C974.233 224.008 932.847 453.877 879.093 481.288" stroke="#535461" stroke-miterlimit="10"/>
<path opacity="0.6" d="M859.076 287.633C859.076 287.633 903.403 293.722 947.692 339.25" stroke="#535461" stroke-miterlimit="10"/>
<path opacity="0.6" d="M939.901 365.942C939.901 365.942 974.025 332.574 1027.32 338.247" stroke="#535461" stroke-miterlimit="10"/>
<path opacity="0.6" d="M839.608 380.447C839.608 380.447 901.862 385.732 924.914 409.645" stroke="#535461" stroke-miterlimit="10"/>
<path opacity="0.6" d="M915.553 431.903C915.553 431.903 950.434 425.795 982.592 446.369" stroke="#535461" stroke-miterlimit="10"/>
<path d="M212.83 129V152.629V597.23H900.169V152.629V129H212.83Z" fill="url(#paint1_linear)"/>
<path d="M892.889 150.246H223.023V588.758H892.889V150.246Z" fill="white"/>
<path d="M892.889 129.388H223.023V161.649H892.889V129.388Z" fill="#EEEEEE"/>
<path d="M248.515 152.846C252.834 152.846 256.334 149.346 256.334 145.027C256.334 140.708 252.834 137.207 248.515 137.207C244.196 137.207 240.695 140.708 240.695 145.027C240.695 149.346 244.196 152.846 248.515 152.846Z" fill="#FF5252"/>
<path d="M270.026 152.846C274.344 152.846 277.845 149.346 277.845 145.027C277.845 140.708 274.344 137.207 270.026 137.207C265.707 137.207 262.206 140.708 262.206 145.027C262.206 149.346 265.707 152.846 270.026 152.846Z" fill="#FFFF00"/>
<path d="M291.537 152.846C295.856 152.846 299.356 149.346 299.356 145.027C299.356 140.708 295.856 137.207 291.537 137.207C287.218 137.207 283.717 140.708 283.717 145.027C283.717 149.346 287.218 152.846 291.537 152.846Z" fill="#69F0AE"/>
<path opacity="0.5" d="M498.316 213.323H248.694V223.724H498.316V213.323Z" fill="#E0E0E0"/>
<path opacity="0.5" d="M498.316 234.125H248.694V244.526H498.316V234.125Z" fill="#00AEC8"/>
<path opacity="0.5" d="M498.316 254.927H248.694V265.328H498.316V254.927Z" fill="#E0E0E0"/>
<path opacity="0.5" d="M498.316 275.728H334.738V286.129H498.316V275.728Z" fill="#E0E0E0"/>
<path opacity="0.5" d="M380.124 296.53H248.694V306.931H380.124V296.53Z" fill="#75DFBC"/>
<path opacity="0.5" d="M420.782 317.332H319.61V327.733H420.782V317.332Z" fill="#E0E0E0"/>
<path opacity="0.5" d="M825.472 286.129H531.41V455.38H825.472V286.129Z" fill="#F5F7FB"/>
<path d="M860.457 302.203H566.395V471.455H860.457V302.203Z" fill="#EEEEEE"/>
<path opacity="0.5" d="M1037.25 458.349C1037.86 457.569 1038.2 456.608 1038.2 455.617C1038.2 455.617 1038.2 455.56 1038.2 455.541C1038.2 455.522 1038.26 455.343 1038.28 455.248V455.125C1038.29 455.034 1038.29 454.942 1038.28 454.851C1038.28 454.851 1038.28 454.775 1038.28 454.738C1038.29 454.624 1038.29 454.51 1038.28 454.397C1037.73 450.615 1015.25 425.974 1009.63 395.916C1009.01 392.643 1008.09 389.436 1006.86 386.337C1007.04 384.787 1006.93 383.219 1006.56 381.704C1005.62 377.856 1003.72 373.951 1004.67 370.112C1004.8 369.61 1004.98 369.12 1005.19 368.646C1006.37 366.914 1007.45 365.118 1008.43 363.266C1008.8 362.663 1009.12 362.03 1009.38 361.375C1012.83 352.279 1002.15 342.89 1004.11 333.397C1004.96 329.284 1008.15 325.691 1008.06 321.502C1007.96 316.708 1003.55 312.992 998.978 311.214C994.402 309.437 989.362 308.926 984.871 306.941C975.028 302.582 969.638 292.058 960.656 286.205C949.243 278.783 934.351 280.106 920.669 282.026C920.219 282.092 919.791 282.268 919.425 282.538C919.059 282.809 918.765 283.165 918.57 283.576H918.437C918.333 283.879 918.211 284.172 918.078 284.465C916.187 287.689 913.001 290.138 909.852 292.398C906.013 295.102 901.9 297.769 899.555 301.778C899.205 302.374 898.912 302.941 898.657 303.489C893.551 312.595 899.687 316.528 907.167 318.713C906.943 320.015 906.829 321.334 906.826 322.655C906.826 335.893 917.898 346.7 931.543 346.7C932.621 346.699 933.698 346.63 934.767 346.492L935.561 347.012H935.741C938.275 348.837 940.468 351.126 941.414 353.849L933.49 359.9C933.49 359.9 933.812 360.732 934.285 362.056L903.139 376.409C891.338 376.958 872.238 339.789 872.238 339.789C872.238 339.789 869.402 318.476 859.313 314.647C856.268 313.493 855.058 315.904 854.85 319.838C850.34 324.565 857.914 351.116 857.914 351.116L882.072 393.75C884.322 398.119 884.909 400.851 895.555 402.497C904.321 403.839 931.628 394.138 941.13 390.621L941.575 394.403C940.47 397.286 939.981 400.368 940.137 403.452C940.137 410.42 943.248 420.556 958.434 428.631C958.434 428.631 974.111 448.894 972.371 468.022C972.371 468.022 973.127 468.817 974.338 469.857C974.167 475.246 973.392 481.893 970.678 484.484C970.499 484.653 970.366 484.865 970.291 485.1C970.217 485.335 970.204 485.585 970.253 485.827C970.195 486.11 970.227 486.404 970.346 486.667C970.465 486.93 970.664 487.149 970.915 487.292L951.125 521.946C950.387 522.892 949.64 523.837 948.874 524.783C945.201 529.466 941.122 533.816 936.686 537.784C933.386 540.725 929.954 543.939 929.273 545.14C928.224 547.031 925.586 553.13 926.701 558.17C928.146 564.281 928.737 570.562 928.46 576.835L925.898 621.663C925.038 626.667 923.854 631.61 922.352 636.46H921.964C921.964 636.46 912.414 647.939 897.248 650.643C882.081 653.348 882.639 661.044 887.131 662.122C891.622 663.2 946.123 661.025 946.123 661.025C946.123 661.025 948.184 657.007 947.617 653.338C965.015 651.664 989.116 648.828 989.116 648.828C989.116 648.828 992.416 640.895 987.622 637.434C985.818 636.048 984.479 634.145 983.783 631.978C983.5 630.768 983.188 629.388 982.885 627.941C982.81 627.232 982.81 626.797 982.81 626.797H982.649C981.807 622.57 981.136 618.041 981.524 615.668C982.932 609.38 986.582 573.034 977.59 562.652C973.506 557.924 974.063 552.553 975.879 548.071C986.667 541.008 1001.76 525.814 1010.49 516.623C1010.98 517.029 1011.43 517.436 1011.86 517.843L1012.14 518.117C1012.14 518.117 1041.84 503.414 1041.96 477.459C1042.01 470.796 1040.39 464.228 1037.25 458.349ZM942.123 641.443C942.07 640.497 942.104 639.547 942.227 638.607L941.282 638.503C941.83 634.38 943.173 629.766 946.179 626.579C951.342 617.228 954.993 607.118 956.996 596.625L962.452 617.266C962.452 617.266 963.001 621.54 963.152 626.059H963.057C963.057 626.059 955.446 636.924 942.123 641.443Z" fill="url(#paint2_linear)"/>
<path d="M966.782 374.102C966.782 374.102 953.441 378.905 945.981 386.914C945.981 386.914 909.681 401.324 899.536 399.726C889.39 398.128 888.861 395.452 886.724 391.216L863.766 349.613C863.766 349.613 854.16 314.911 863.766 318.646C873.373 322.381 876.058 343.23 876.058 343.23C876.058 343.23 894.213 379.53 905.417 379L935.816 364.514C935.816 364.514 942.756 354.369 945.962 354.908C949.167 355.447 966.782 374.102 966.782 374.102Z" fill="#FDB797"/>
<g opacity="0.05">
<path opacity="0.05" d="M966.782 374.102C966.782 374.102 953.441 378.905 945.981 386.914C945.981 386.914 909.681 401.324 899.536 399.726C889.39 398.128 888.861 395.452 886.724 391.216L863.766 349.613C863.766 349.613 854.16 314.911 863.766 318.646C873.373 322.381 876.058 343.23 876.058 343.23C876.058 343.23 894.213 379.53 905.417 379L935.816 364.514C935.816 364.514 942.756 354.369 945.962 354.908C949.167 355.447 966.782 374.102 966.782 374.102Z" fill="black"/>
</g>
<path d="M944.865 354.425L934.218 362.784C934.218 362.784 939.542 376.712 938.208 381.591C936.875 386.47 959.502 373.932 959.502 373.932L950.188 353.036L944.865 354.425Z" fill="#F9CE43"/>
<g opacity="0.05">
<path opacity="0.05" d="M944.865 354.425L934.218 362.784C934.218 362.784 939.542 376.712 938.208 381.591C936.875 386.47 959.502 373.932 959.502 373.932L950.188 353.036L944.865 354.425Z" fill="black"/>
</g>
<path d="M926.484 345.121C926.484 345.121 950.236 352.865 939.296 366.472L973.458 349.925C973.458 349.925 959.048 350.993 949.971 329.123L926.484 345.121Z" fill="#FDB797"/>
<path d="M971.321 484.456L941.962 537.302L961.724 614.136C961.724 614.136 963.861 631.222 960.655 632.82H983.074C983.074 632.82 978.753 617.691 979.869 612.538C981.202 606.402 984.672 570.935 976.086 560.761C967.501 550.587 980.36 537.273 980.36 537.273L1005.98 496.7L971.321 484.456Z" fill="#FDB797"/>
<g opacity="0.05">
<path opacity="0.05" d="M971.321 484.456L941.962 537.302L961.724 614.136C961.724 614.136 963.861 631.222 960.655 632.82H983.074C983.074 632.82 979.074 617.606 979.869 612.538C980.663 607.47 984.672 570.935 976.086 560.761C967.501 550.587 980.36 537.273 980.36 537.273L1005.98 496.7L971.321 484.456Z" fill="black"/>
</g>
<path d="M962.291 622.76C962.291 622.76 954.159 634.739 939.976 638.541C925.793 642.342 926.947 649.755 931.287 650.473C935.627 651.192 987.074 644.961 987.074 644.961C987.074 644.961 990.203 637.217 985.655 633.832C981.107 630.447 981.079 623.431 981.079 623.431L962.291 622.76Z" fill="#0D134D"/>
<g opacity="0.1">
<path opacity="0.1" d="M972.929 463.096C972.929 463.096 974.196 480.456 969.572 485.014C969.41 485.165 969.287 485.352 969.211 485.56C969.136 485.768 969.111 485.992 969.139 486.211C969.167 486.431 969.246 486.641 969.371 486.824C969.495 487.007 969.661 487.158 969.856 487.264L983.604 494.592L995.896 471.105L972.929 463.096Z" fill="black"/>
</g>
<path d="M972.929 462.567C972.929 462.567 974.196 479.927 969.572 484.484C969.41 484.635 969.287 484.823 969.211 485.031C969.136 485.239 969.111 485.462 969.139 485.682C969.167 485.901 969.246 486.111 969.371 486.294C969.495 486.477 969.661 486.628 969.856 486.734L983.604 494.062L995.896 470.575L972.929 462.567Z" fill="#E23553"/>
<g opacity="0.1">
<path opacity="0.1" d="M972.929 463.512C972.929 463.512 974.196 480.872 969.572 485.43C969.41 485.581 969.287 485.768 969.211 485.976C969.136 486.185 969.111 486.408 969.139 486.627C969.167 486.847 969.246 487.057 969.371 487.24C969.495 487.423 969.661 487.574 969.856 487.68L983.604 495.008L995.896 471.521L972.929 463.512Z" fill="black"/>
</g>
<path d="M973.458 496.729C973.458 496.729 965.525 502.024 948.874 523.818C945.392 528.382 941.516 532.631 937.291 536.517C934.161 539.354 930.899 542.531 930.247 543.703C929.244 545.509 926.739 551.513 927.807 556.43C929.18 562.404 929.743 568.536 929.481 574.66L927.051 618.448C927.051 618.448 923.845 638.2 919.581 640.337L941.47 644.119C941.47 644.119 939.872 630.239 946.274 623.317C946.274 623.317 961.223 597.693 957.488 568.864C957.488 568.864 955.89 556.052 970.3 549.111C984.71 542.171 1014.08 508.539 1014.08 508.539L973.458 496.729Z" fill="#FDB797"/>
<path d="M923.278 632.858C923.278 632.858 914.201 644.072 899.791 646.738C885.381 649.405 885.911 656.884 890.185 657.952C894.458 659.021 946.236 656.884 946.236 656.884C946.236 656.884 950.018 649.414 945.707 645.67C941.395 641.925 942.501 634.995 942.501 634.995L923.278 632.858Z" fill="#0D134D"/>
<g opacity="0.1">
<path opacity="0.1" d="M986.809 468.438C986.809 468.438 980.294 490.318 972.04 496.691C971.887 496.805 971.768 496.959 971.695 497.136C971.622 497.313 971.599 497.506 971.627 497.695C971.655 497.884 971.734 498.062 971.855 498.21C971.976 498.357 972.134 498.47 972.314 498.535C979.141 501.022 1001.08 509.399 1008.7 517.02L1008.96 517.285C1008.96 517.285 1054.6 494.062 1030.05 454.558L986.809 468.438Z" fill="black"/>
</g>
<path d="M986.809 467.909C986.809 467.909 980.294 489.788 972.04 496.161C971.887 496.276 971.768 496.43 971.695 496.606C971.622 496.783 971.599 496.976 971.627 497.165C971.655 497.354 971.734 497.532 971.855 497.68C971.976 497.828 972.134 497.94 972.314 498.005C979.141 500.492 1001.08 508.869 1008.7 516.49L1008.96 516.755C1008.96 516.755 1054.6 493.533 1030.05 454.028L986.809 467.909Z" fill="#E23553"/>
<g opacity="0.1">
<path opacity="0.1" d="M949.328 359.418C945.936 361.699 942.228 363.471 938.322 364.675L941.99 397.324C941.99 397.324 933.414 416.519 957.942 429.927C957.942 429.927 972.834 449.717 971.179 468.4C971.179 468.4 979.169 476.967 984.511 474.84C989.854 472.712 985.041 475.908 986.109 475.379C987.178 474.849 989.305 479.662 1005.86 475.426C1022.42 471.19 1034.23 460.023 1033.67 456.279C1033.11 452.534 1011.86 428.461 1006.59 399.083C1001.32 369.705 969.884 348.809 969.884 348.809C969.884 348.809 968.844 349.386 967.047 350.152C960.901 352.76 954.976 355.858 949.328 359.418Z" fill="black"/>
</g>
<g opacity="0.1">
<path opacity="0.1" d="M971.624 496.89C971.604 497.119 971.662 497.348 971.787 497.542C971.912 497.735 972.097 497.881 972.314 497.958C978.195 500.104 995.291 506.619 1004.78 513.257C996.567 506.619 979.084 499.726 971.624 496.89Z" fill="black"/>
<path opacity="0.1" d="M1030.05 454.028L1029.1 454.35C1050.08 491.027 1010.57 513.181 1007.12 515.025C1007.71 515.517 1008.25 515.97 1008.75 516.49L1009.01 516.755C1009.01 516.755 1054.6 493.533 1030.05 454.028Z" fill="black"/>
</g>
<path d="M1006.02 474.31C989.475 478.584 987.338 473.781 986.27 474.31C985.201 474.84 990.052 471.644 984.672 473.781C979.292 475.917 971.33 467.37 971.33 467.37C971.406 466.424 971.444 465.545 971.444 464.628C971.501 446.776 957.942 428.934 957.942 428.934C933.358 415.592 941.924 396.369 941.924 396.369L940.922 387.614L938.17 363.73C942.071 362.518 945.773 360.741 949.158 358.453C954.797 354.885 960.713 351.773 966.848 349.149C968.654 348.374 969.685 347.797 969.685 347.797C969.685 347.797 1001.18 368.599 1006.56 397.977C1011.94 427.355 1033.25 451.362 1033.78 455.097C1034.31 458.832 1022.57 470.036 1006.02 474.31Z" fill="#F9CE43"/>
<g opacity="0.1">
<path opacity="0.1" d="M950.5 329.643L927.013 345.66C930.25 346.783 933.33 348.318 936.175 350.227C944.175 349.102 949.073 343.372 952.372 336.318C951.087 334.257 951.654 332.413 950.5 329.643Z" fill="black"/>
</g>
<path d="M932.355 349.934C945.327 349.934 955.842 339.419 955.842 326.447C955.842 313.475 945.327 302.96 932.355 302.96C919.384 302.96 908.868 313.475 908.868 326.447C908.868 339.419 919.384 349.934 932.355 349.934Z" fill="#FDB797"/>
<g opacity="0.1">
<path opacity="0.1" d="M1009.76 471.644C993.21 475.918 991.073 471.114 990.005 471.644C988.936 472.173 993.787 468.977 988.407 471.114C983.027 473.251 975.065 464.703 975.065 464.703C975.141 463.758 975.179 462.879 975.179 461.961C975.245 444.138 961.714 426.267 961.714 426.267C937.13 412.926 945.697 393.703 945.697 393.703L944.704 384.938L942.104 362.33C940.848 362.896 939.548 363.361 938.218 363.72L940.922 387.614L941.934 396.37C941.934 396.37 933.424 415.592 957.951 428.934C957.951 428.934 971.482 446.804 971.416 464.628C971.416 465.573 971.416 466.453 971.302 467.37C971.302 467.37 979.311 475.88 984.644 473.781C989.976 471.682 985.173 474.849 986.242 474.31C987.31 473.771 989.447 478.584 1005.99 474.31C1013.5 472.368 1020.54 468.923 1026.67 464.183C1021.47 467.556 1015.76 470.074 1009.76 471.644Z" fill="black"/>
</g>
<path d="M965.45 378.754C965.45 378.754 952.108 383.557 944.648 391.566C944.648 391.566 908.349 405.976 898.203 404.378C888.057 402.78 887.528 400.104 885.391 395.868L862.433 354.265C862.433 354.265 852.827 319.563 862.433 323.298C872.04 327.033 874.725 347.882 874.725 347.882C874.725 347.882 892.879 384.182 904.084 383.652L934.493 369.147C934.493 369.147 941.433 359.002 944.638 359.541C947.844 360.08 965.45 378.754 965.45 378.754Z" fill="#FDB797"/>
<g opacity="0.1">
<path opacity="0.1" d="M947.428 359.21C947.428 359.21 936.355 358.198 933.15 372.079C929.945 385.959 957.734 394.497 957.734 394.497L972.683 373.695L947.428 359.21Z" fill="black"/>
</g>
<path d="M947.966 359.21C947.966 359.21 936.894 358.198 933.689 372.079C930.483 385.959 958.273 394.497 958.273 394.497L973.221 373.695L947.966 359.21Z" fill="#F9CE43"/>
<g opacity="0.1">
<path opacity="0.1" d="M943.447 361.678C941.771 362.522 940.017 363.2 938.208 363.701L938.303 364.505C940.067 363.654 941.784 362.711 943.447 361.678Z" fill="black"/>
<path opacity="0.1" d="M1033.78 455.097C1033.25 451.315 1011.89 427.336 1006.56 397.977C1001.23 368.618 969.686 347.797 969.686 347.797C969.686 347.797 968.646 348.374 966.849 349.149C962.051 351.21 957.384 353.563 952.874 356.194C955.868 354.618 958.925 353.162 962.046 351.825C963.852 351.05 964.882 350.473 964.882 350.473C964.882 350.473 996.378 371.275 1001.76 400.653C1007.14 430.031 1028.45 454.038 1028.98 457.773C1029.32 460.127 1024.77 465.45 1017.22 470.14C1027.59 464.987 1034.19 457.914 1033.78 455.097Z" fill="black"/>
</g>
<path opacity="0.1" d="M954.311 359.427C954.311 359.427 968.116 366.264 970.716 379.407" stroke="black" stroke-miterlimit="10"/>
<g opacity="0.1">
<path opacity="0.1" d="M920.555 325.123C922.758 325.615 925.217 326.305 926.304 328.281C927.089 329.719 926.947 331.525 927.713 333.009C929.68 336.716 935.447 335.439 939.059 337.614C945.678 341.604 941.357 354.047 947.947 358.056C949.186 358.813 950.652 359.115 951.928 359.806C957.497 362.85 956.712 370.906 955.71 377.175C954.708 383.444 955.899 392.02 962.187 392.909C965.648 393.391 969.534 391.103 972.446 393.022C973.969 394.025 974.659 395.859 975.935 397.192C976.812 398.067 977.925 398.666 979.138 398.916C980.351 399.167 981.611 399.057 982.762 398.601C984.899 397.712 986.44 395.679 988.662 395.027C992.236 393.977 996.226 396.871 999.668 395.537C1003.11 394.204 1003.89 389.231 1003.01 385.477C1002.12 381.723 1000.3 377.913 1001.25 374.13C1002.03 371.01 1004.58 368.627 1005.7 365.621C1008.97 356.742 998.827 347.57 1000.7 338.295C1001.51 334.276 1004.54 330.73 1004.48 326.674C1004.39 321.946 1000.2 318.363 995.839 316.623C991.48 314.883 986.695 314.391 982.431 312.453C973.08 308.198 967.964 297.911 959.417 292.2C955.588 289.701 951.273 288.045 946.756 287.34C940.927 286.401 934.965 286.717 929.268 288.266C923.571 289.815 918.27 292.562 913.719 296.322C912.877 297.003 912.017 297.646 911.147 298.27C907.497 300.908 903.583 303.508 901.361 307.423C893.248 321.549 911.885 323.166 920.555 325.123Z" fill="black"/>
</g>
<path d="M921.217 323.79C923.42 324.282 925.879 324.972 926.966 326.948C927.751 328.385 927.609 330.191 928.375 331.676C930.341 335.382 936.109 334.106 939.721 336.281C946.34 340.271 942.019 352.714 948.609 356.723C949.848 357.48 951.314 357.782 952.59 358.472C958.159 361.517 957.374 369.573 956.372 375.842C955.37 382.111 956.561 390.687 962.849 391.576C966.31 392.058 970.196 389.77 973.108 391.689C974.63 392.691 975.321 394.526 976.597 395.859C977.474 396.733 978.587 397.333 979.8 397.583C981.013 397.833 982.273 397.724 983.424 397.268C985.561 396.379 987.102 394.346 989.324 393.694C992.898 392.644 996.888 395.537 1000.33 394.204C1003.77 392.871 1004.56 387.897 1003.67 384.144C1002.78 380.39 1000.96 376.579 1001.91 372.797C1002.69 369.677 1005.25 367.294 1006.36 364.287C1009.63 355.409 999.489 346.237 1001.36 336.961C1002.17 332.943 1005.2 329.397 1005.14 325.341C1005.05 320.613 1000.86 317.03 996.501 315.29C992.142 313.55 987.357 313.058 983.093 311.12C973.742 306.865 968.626 296.578 960.079 290.866C956.606 288.587 952.718 287.013 948.638 286.233C942.629 285.081 936.441 285.27 930.514 286.787C924.587 288.303 919.068 291.111 914.352 295.008C913.52 295.679 912.66 296.322 911.809 296.899C908.159 299.537 904.245 302.137 902.023 306.052C893.91 320.216 912.556 321.842 921.217 323.79Z" fill="#00AEC8"/>
<path d="M730.918 471.455H566.395V440.45C606.59 421.663 668.437 411.11 730.918 471.455Z" fill="#00AEC8"/>
<g opacity="0.1">
<path opacity="0.1" d="M858.566 467.02V471.455H653.384V470.509C653.384 470.509 754.349 372.202 858.566 467.02Z" fill="black"/>
</g>
<path d="M860.457 467.02V471.455H655.275V470.509C655.275 470.509 756.24 372.202 860.457 467.02Z" fill="#00AEC8"/>
<path d="M600.434 347.589C608.79 347.589 615.563 340.816 615.563 332.461C615.563 324.105 608.79 317.332 600.434 317.332C592.079 317.332 585.306 324.105 585.306 332.461C585.306 340.816 592.079 347.589 600.434 347.589Z" fill="#F9CE43"/>
<path d="M729.235 321.02C727.505 321.02 725.576 321.02 724.262 321.124C723.674 321.156 723.095 321.274 722.541 321.474L713.644 324.669C720.83 324.849 728.328 324.792 735.693 324.736L776.995 324.414C781.212 324.414 785.637 324.338 789.145 324.093C791.499 323.922 793.229 323.677 795.404 323.487C803.224 322.788 814.617 322.92 824.801 322.958C834.984 322.996 847.276 322.731 850.86 321.71H828.999C826.645 321.71 824.167 321.71 822.087 321.596C819.657 321.455 818.173 321.19 816.036 321.001C812.499 320.698 807.62 320.66 803.082 320.641C778.167 320.537 753.564 321.124 729.235 321.02Z" fill="#F4F4F4"/>
<path d="M753.706 339.344C753.327 339.344 752.911 339.344 752.628 339.344C752.499 339.351 752.371 339.376 752.249 339.42L750.358 340.11C751.919 340.11 753.535 340.11 755.133 340.11L764.078 340.044C765.024 340.044 765.969 340.044 766.707 339.978C767.217 339.978 767.596 339.883 768.059 339.845C769.751 339.694 772.219 339.722 774.432 339.732C776.327 339.796 778.225 339.704 780.105 339.458H775.377C774.867 339.458 774.328 339.458 773.883 339.458C773.439 339.458 773.032 339.373 772.569 339.325C771.803 339.259 770.744 339.25 769.732 339.25C764.343 339.25 759.01 339.373 753.706 339.344Z" fill="#F4F4F4"/>
<path d="M690.355 365.819C689.977 365.819 689.561 365.819 689.277 365.819C689.148 365.826 689.021 365.851 688.899 365.895L687.008 366.585C688.568 366.585 690.185 366.585 691.783 366.585L700.727 366.519C701.673 366.519 702.619 366.519 703.356 366.453C703.867 366.453 704.245 366.358 704.708 366.32C706.401 366.169 708.869 366.197 711.081 366.207C712.977 366.271 714.874 366.179 716.754 365.933H712.027C711.516 365.933 710.977 365.933 710.533 365.933C710.088 365.933 709.682 365.848 709.218 365.8C708.453 365.734 707.394 365.725 706.382 365.725C700.992 365.725 695.659 365.848 690.355 365.819Z" fill="#F4F4F4"/>
<path d="M654.812 463.068H647.701C647.701 463.068 645.479 385.307 654.812 361.309H656.589C656.589 361.309 650.368 449.291 654.812 463.068Z" fill="#00AEC8"/>
<path d="M649.923 357.309C649.923 357.309 644.146 373.308 646.813 380.418C646.813 380.418 650.812 365.753 655.474 363.531C660.135 361.309 665.024 380.418 665.024 380.418C665.024 380.418 667.69 368.419 662.802 358.671C662.802 358.671 672.578 364.004 677.467 374.225C677.467 374.225 678.356 367.606 666.801 353.782C666.801 353.782 677.022 356.449 683.689 362.671C683.689 362.671 685.911 357.782 672.134 349.783C672.134 349.783 673.912 344.006 684.577 346.672C684.577 346.672 684.577 339.108 667.69 340.45C667.69 340.45 667.69 335.562 678.8 336.451C678.8 336.451 678.8 330.229 665.912 332.451C665.912 332.451 668.579 328.452 670.356 327.563C668.133 327.357 665.914 327.991 664.135 329.34C664.135 329.34 664.579 321.341 657.913 318.23L657.024 329.34C657.024 329.34 649.555 320.537 651.247 322.23C651.692 322.674 653.025 328.007 652.58 330.674C652.58 330.674 645.016 324.452 635.693 331.118C635.693 331.118 647.248 332.007 649.025 336.006C649.025 336.006 639.248 334.229 637.026 335.562C637.026 335.562 644.591 338.228 644.137 340.006C644.137 340.006 630.805 340.006 629.008 344.894C629.008 344.894 642.785 346.672 643.673 348.005C643.673 348.005 627.675 359.56 626.786 362.671C626.786 362.671 643.229 352.894 645.895 352.894C648.562 352.894 633.897 367.077 634.785 370.67C634.823 370.641 646.86 356.421 649.923 357.309Z" fill="#00AEC8"/>
<path d="M742.511 460.155H747.938C747.938 460.155 749.64 400.747 742.511 382.413H741.149C741.149 382.413 745.914 449.613 742.511 460.155Z" fill="#00AEC8"/>
<path d="M746.245 379.359C746.245 379.359 750.661 391.585 748.619 397.012C748.619 397.012 745.565 385.808 742 384.115C738.435 382.423 734.7 397.012 734.7 397.012C734.7 397.012 732.667 387.85 736.402 380.38C731.624 383.209 727.74 387.329 725.198 392.266C725.198 392.266 724.517 387.169 733.348 376.646C733.348 376.646 725.538 378.679 720.451 383.435C720.451 383.435 718.749 379.7 729.282 373.592C729.282 373.592 727.921 369.176 719.78 371.218C719.78 371.218 719.78 365.45 732.677 366.491C732.677 366.491 732.677 362.756 724.167 363.436C724.167 363.436 724.167 358.709 734.01 360.382C734.01 360.382 731.977 357.328 730.616 356.648C732.306 356.498 733.991 356.983 735.343 358.009C735.343 358.009 735.003 351.901 740.071 349.499L740.752 358.009C740.752 358.009 746.425 351.286 745.167 352.582C744.354 354.629 744.006 356.832 744.146 359.03C744.146 359.03 749.914 354.303 757.043 359.371C757.043 359.371 748.212 360.051 746.86 363.106C746.86 363.106 754.33 361.744 756.022 362.765C756.022 362.765 750.254 364.798 750.595 366.16C750.595 366.16 760.778 366.16 762.14 369.894C762.14 369.894 751.616 371.256 750.935 372.268C750.935 372.268 763.161 381.099 763.832 383.472C763.832 383.472 751.276 376.003 749.233 376.003C747.191 376.003 758.396 386.867 757.743 389.581C757.79 389.543 748.628 378.697 746.245 379.359Z" fill="#00AEC8"/>
<path d="M807.497 448.544H810.863C810.863 448.544 811.913 411.753 807.497 400.397H806.656C806.656 400.397 809.596 442.048 807.497 448.544Z" fill="#00AEC8"/>
<path d="M809.814 398.506C809.814 398.506 812.546 406.071 811.289 409.437C811.289 409.437 809.398 402.497 807.185 401.447C804.973 400.397 802.666 409.437 802.666 409.437C802.666 409.437 801.408 403.764 803.715 399.13C800.756 400.881 798.35 403.431 796.775 406.487C796.775 406.487 796.359 403.329 801.824 396.814C798.891 397.63 796.167 399.065 793.834 401.022C793.834 401.022 792.785 398.705 799.299 394.923C799.299 394.923 798.458 392.19 793.409 393.448C793.409 393.448 793.409 389.874 801.398 390.507C801.398 390.507 801.398 388.191 796.141 388.616C796.141 388.616 796.141 385.675 802.24 386.725C801.677 385.839 800.967 385.056 800.141 384.408C801.192 384.312 802.241 384.612 803.082 385.25C803.082 385.25 802.874 381.468 806.022 379.993L806.438 385.25C806.438 385.25 809.974 381.09 809.171 381.884C808.667 383.151 808.451 384.514 808.537 385.874C809.705 385.023 811.122 384.581 812.568 384.619C814.013 384.656 815.405 385.171 816.527 386.082C816.527 386.082 811.062 386.498 810.22 388.399C810.22 388.399 814.844 387.557 815.894 388.191C815.894 388.191 812.319 389.448 812.527 390.29C812.527 390.29 818.834 390.29 819.676 392.606C819.676 392.606 813.161 393.448 812.735 394.081C812.735 394.081 820.3 399.547 820.725 401.022C820.725 401.022 812.944 396.398 811.686 396.398C810.428 396.398 817.359 403.13 816.943 404.804C816.962 404.813 811.279 398.081 809.814 398.506Z" fill="#00AEC8"/>
<path d="M684.578 406.941L683.869 403.158C683.868 402.88 683.81 402.605 683.7 402.35C683.589 402.095 683.428 401.865 683.226 401.674L679.945 400.067C679.703 399.783 679.505 399.464 679.358 399.121L679.415 399.036C679.596 398.811 679.725 398.55 679.793 398.27C679.799 398.198 679.799 398.125 679.793 398.053H679.841C680.143 398.093 680.45 398.018 680.701 397.843C680.951 397.668 681.127 397.405 681.193 397.107V397.022C681.134 397.277 680.995 397.507 680.796 397.678C680.597 397.848 680.348 397.95 680.086 397.967C680.543 397.662 680.917 397.248 681.176 396.763C681.435 396.278 681.571 395.737 681.571 395.188C681.571 395.188 681.571 395.093 681.571 395.046C681.716 394.957 681.84 394.839 681.936 394.699C682.033 394.558 682.098 394.4 682.129 394.233V394.147C682.089 394.306 682.017 394.455 681.918 394.585C681.819 394.715 681.694 394.823 681.552 394.904C681.529 394.58 681.459 394.262 681.344 393.958H681.429C681.753 393.958 682.063 393.83 682.292 393.601C682.52 393.372 682.649 393.062 682.649 392.739C682.649 392.739 682.649 392.682 682.649 392.654C682.627 392.96 682.491 393.248 682.266 393.458C682.042 393.669 681.746 393.786 681.439 393.788H681.287V393.731C681.65 393.622 681.974 393.413 682.222 393.126C682.47 392.84 682.631 392.489 682.687 392.115C682.687 392.115 682.687 392.058 682.687 392.029C682.671 392.266 682.585 392.493 682.441 392.682C682.457 392.379 682.36 392.081 682.168 391.846C681.976 391.611 681.703 391.456 681.403 391.411C681.103 391.366 680.797 391.434 680.545 391.603C680.293 391.772 680.112 392.028 680.039 392.323L679.822 392.2C679.89 391.956 680.032 391.74 680.228 391.58C680.425 391.421 680.666 391.327 680.919 391.311H680.833C680.578 391.309 680.328 391.387 680.119 391.535C679.911 391.682 679.754 391.892 679.67 392.133C678.94 391.794 678.111 391.729 677.336 391.951C676.561 392.174 675.893 392.668 675.453 393.344C675.198 393.533 674.867 393.807 674.877 394.043C674.767 394.153 674.669 394.273 674.583 394.403C674.223 395.192 674.092 396.067 674.205 396.927C674.257 397.355 674.206 397.789 674.054 398.192C673.903 398.596 673.656 398.956 673.335 399.244C673.476 399.303 673.627 399.333 673.78 399.333C673.932 399.333 674.083 399.303 674.224 399.244C674.505 399.125 674.769 398.969 675.009 398.781C675.233 398.645 675.423 398.461 675.567 398.242V398.194C675.724 398.3 675.892 398.388 676.068 398.459C676.134 399.026 676.153 399.679 675.898 399.896L675.945 399.792C675.336 400.251 674.577 400.467 673.818 400.397C673.359 400.423 672.915 400.568 672.529 400.816C672.143 401.065 671.828 401.409 671.614 401.816L670.584 406.118V406.194V406.269C670.599 406.327 670.631 406.38 670.674 406.422C670.717 406.463 670.771 406.492 670.83 406.506L671.151 406.591C671.2 407.326 671.126 408.064 670.934 408.775C670.718 409.834 670.594 410.909 670.565 411.99C670.641 412.529 670.773 415.337 670.839 416.67C670.724 417.125 670.633 417.586 670.565 418.051L669.043 427.185C669.043 427.185 667.908 434.494 667.965 436.706L667.766 437.983C667.766 437.983 664.674 441.859 665.582 442.408C666.49 442.956 667.889 443.192 669.222 441.131C669.403 440.645 669.694 440.208 670.073 439.855C670.225 439.724 670.342 439.558 670.416 439.372C670.49 439.186 670.519 438.985 670.499 438.786L670.404 437.841L670.565 437.897H670.659C670.659 437.897 672.182 432.896 672.012 429.388C672.012 429.388 674.848 419.346 676.976 417.767V417.701L677.174 417.606L677.628 427.336L677.165 438.058L677.061 438.701C677.061 438.701 673.969 442.578 674.877 443.126C675.784 443.675 677.184 443.911 678.517 441.85C678.698 441.364 678.989 440.927 679.368 440.573C679.519 440.442 679.637 440.277 679.711 440.091C679.785 439.905 679.813 439.704 679.793 439.505L679.651 438.087C680.181 436.281 681.543 431.08 680.985 428.064L681.93 421.653C682.876 420.585 682.753 417.871 682.753 417.871C683.5 416.311 683.698 410.193 683.698 410.193L683.887 407.167C684.029 407.155 684.171 407.155 684.313 407.167H684.408H684.464V407.111C684.492 407.087 684.514 407.058 684.53 407.026H684.587V406.95L684.578 406.941ZM681.93 413.087C681.845 412.879 681.751 412.671 681.647 412.462H681.571V412.387C681.568 412.362 681.568 412.336 681.571 412.311V412.236C681.615 412.134 681.653 412.03 681.684 411.924C681.807 411.728 681.869 411.501 681.864 411.271C681.975 411.87 681.998 412.481 681.93 413.087ZM681.647 410.496L681.457 408.472L681.514 408.312L681.769 410.883L681.647 410.496ZM672.683 410.77C672.618 410.844 672.569 410.932 672.54 411.026C672.511 411.121 672.501 411.22 672.513 411.318C672.513 411.318 672.513 411.318 672.513 411.385C672.514 411.589 672.543 411.793 672.598 411.99L672.305 413.257V410.836C672.499 410.581 672.67 410.309 672.815 410.023C672.845 410.28 672.799 410.539 672.683 410.77Z" fill="url(#paint3_linear)"/>
<path d="M674.593 395.15C674.245 395.909 674.117 396.751 674.224 397.58C674.273 397.992 674.223 398.41 674.076 398.799C673.93 399.187 673.692 399.534 673.382 399.811C673.519 399.868 673.665 399.898 673.813 399.898C673.96 399.898 674.107 399.868 674.243 399.811C674.514 399.697 674.768 399.548 674.999 399.367C675.215 399.236 675.4 399.058 675.538 398.847C675.669 398.52 675.711 398.165 675.661 397.816C675.662 397.198 675.716 396.581 675.822 395.972C675.879 395.594 676.238 394.564 675.822 394.365C675.406 394.166 674.772 394.866 674.593 395.15Z" fill="#72351C"/>
<path d="M668.343 435.345L668.05 437.236C668.05 437.236 665.071 441.018 665.95 441.5C666.83 441.982 668.173 442.256 669.458 440.271C669.631 439.804 669.909 439.383 670.272 439.042C670.417 438.915 670.53 438.755 670.601 438.576C670.672 438.397 670.698 438.203 670.678 438.011L670.385 435.127L668.343 435.345Z" fill="#333333"/>
<path d="M677.307 436.092L677.013 437.983C677.013 437.983 674.035 441.765 674.914 442.247C675.794 442.729 677.136 443.003 678.422 441.018C678.595 440.551 678.873 440.13 679.235 439.789C679.381 439.662 679.494 439.502 679.565 439.323C679.635 439.144 679.662 438.95 679.642 438.758L679.349 435.874L677.307 436.092Z" fill="#333333"/>
<path d="M672.664 413.484C672.664 413.484 671.264 414.495 670.773 418.013L669.307 426.816C669.307 426.816 668.068 434.796 668.295 436.328L670.773 437.179C670.773 437.179 672.238 432.357 672.077 429C672.077 429 675.056 418.391 677.146 417.654L677.59 427.024L677.117 437.567L679.235 437.992C679.235 437.992 681.382 431.279 680.701 427.724L681.807 420.159C681.807 420.159 683.074 416.122 681.315 412.595L672.664 413.484Z" fill="#4D8AF0"/>
<g opacity="0.1">
<path opacity="0.1" d="M676.928 417.795V417.635C674.838 418.382 671.86 428.981 671.86 428.981C671.809 431.725 671.38 434.449 670.583 437.075L670.848 437.169C670.848 437.169 672.314 432.347 672.153 428.991C672.144 429 674.867 419.356 676.928 417.795Z" fill="black"/>
<path opacity="0.1" d="M681.4 412.642H681.117C682.133 415.013 682.3 417.661 681.59 420.14L680.483 427.705C681.136 431.071 679.235 437.264 679.037 437.916L679.311 437.973C679.311 437.973 681.457 431.26 680.776 427.705L681.883 420.14C681.883 420.14 683.159 416.122 681.4 412.642Z" fill="black"/>
</g>
<path d="M670.763 406.591C670.762 406.663 670.785 406.734 670.83 406.791C670.875 406.848 670.938 406.887 671.009 406.903C671.701 407.076 672.346 407.399 672.9 407.848C673.94 408.661 671.794 406.222 671.794 406.222L671.075 406.383L670.782 406.647L670.763 406.591Z" fill="#F55F44"/>
<path opacity="0.1" d="M670.763 406.591C670.762 406.663 670.785 406.734 670.83 406.791C670.875 406.848 670.938 406.887 671.009 406.903C671.701 407.076 672.346 407.399 672.9 407.848C673.94 408.661 671.794 406.222 671.794 406.222L671.075 406.383L670.782 406.647L670.763 406.591Z" fill="black"/>
<path d="M680.994 408.747C681.869 408.126 682.881 407.726 683.944 407.584C684.017 407.584 684.087 407.555 684.138 407.503C684.19 407.452 684.218 407.382 684.218 407.309C684.218 407.309 681.741 406.335 680.994 408.747Z" fill="#F55F44"/>
<path opacity="0.1" d="M684.218 407.3C684.218 407.3 681.741 406.354 680.994 408.737C680.994 408.737 682.819 407.338 684.086 407.565" fill="black"/>
<path d="M678.12 399.13C679.9 399.13 681.344 397.687 681.344 395.906C681.344 394.125 679.9 392.682 678.12 392.682C676.339 392.682 674.896 394.125 674.896 395.906C674.896 397.687 676.339 399.13 678.12 399.13Z" fill="#72351C"/>
<path d="M675.897 398.166C675.897 398.166 676.351 400.057 675.897 400.445C675.444 400.832 674.526 401.551 675.217 402.109C675.907 402.667 678.375 403.612 679.197 403.149C680.02 402.686 680.956 402.827 680.729 401.882C680.502 400.936 678.706 401.135 678.677 396.436L675.897 398.166Z" fill="#FDB797"/>
<path opacity="0.1" d="M671.33 406.023C671.398 407.049 671.331 408.079 671.132 409.087C670.923 410.105 670.803 411.14 670.772 412.179C670.867 412.86 671.066 417.36 671.066 417.36C671.066 417.36 670.706 421.303 672.626 420.944C674.545 420.585 672.333 416.443 672.333 416.443L672.427 411.063C672.948 410.356 673.274 409.525 673.373 408.652C673.515 407.357 671.33 406.023 671.33 406.023Z" fill="black"/>
<path d="M671.302 406.023C671.369 407.049 671.303 408.079 671.103 409.087C670.894 410.105 670.774 411.14 670.744 412.179C670.839 412.86 671.037 417.36 671.037 417.36C671.037 417.36 670.678 421.303 672.597 420.944C674.517 420.585 672.304 416.443 672.304 416.443L672.399 411.063C672.919 410.356 673.245 409.525 673.344 408.652C673.477 407.357 671.302 406.023 671.302 406.023Z" fill="#FDB797"/>
<path opacity="0.1" d="M683.585 406.317L683.32 410.524C683.32 410.524 683.159 416.424 682.441 417.918C682.441 417.918 682.639 422.06 680.71 421.956C678.782 421.852 681.032 417.427 681.032 417.427C681.032 417.427 682.062 412.822 681.533 411.366L681.032 406.317H683.585Z" fill="black"/>
<path d="M683.613 406.317L683.348 410.524C683.348 410.524 683.188 416.424 682.469 417.918C682.469 417.918 682.668 422.06 680.739 421.956C678.81 421.852 681.06 417.427 681.06 417.427C681.06 417.427 682.091 412.822 681.561 411.366L681.06 406.317H683.613Z" fill="#FDB797"/>
<path opacity="0.1" d="M677.363 402.241C677.363 402.241 678.923 402.96 679.774 400.823L682.942 402.374C683.136 402.559 683.291 402.782 683.397 403.029C683.503 403.276 683.557 403.542 683.556 403.811L684.237 407.461C684.237 407.461 681.92 406.676 681.202 408.832L681.4 410.883C681.55 411.39 681.513 411.933 681.296 412.415C681.277 412.458 681.267 412.505 681.267 412.552C681.267 412.6 681.277 412.646 681.296 412.689C681.344 412.839 681.355 412.997 681.33 413.152C681.305 413.307 681.244 413.453 681.152 413.58C681.06 413.707 680.94 413.811 680.801 413.883C680.662 413.954 680.507 413.993 680.351 413.994C679.499 414.004 678.65 414.07 677.807 414.193C677.126 414.391 675.065 413.805 674.384 414.193C673.704 414.581 672.266 413.9 672.266 413.9L672.654 412.236C672.654 412.236 672.389 411.422 672.72 411.129C673.051 410.836 672.853 408.293 672.56 407.574C672.56 407.574 671.387 406.468 670.668 406.629L671.614 402.421C671.818 402.028 672.12 401.696 672.492 401.455C672.863 401.215 673.29 401.075 673.732 401.05C674.465 401.116 675.196 400.907 675.784 400.464C675.784 400.464 675.075 402.014 677.363 402.241Z" fill="black"/>
<path opacity="0.1" d="M677.524 402.166C677.949 402.279 679.084 402.402 679.765 400.691L682.932 402.241C683.127 402.426 683.282 402.649 683.387 402.897C683.493 403.144 683.547 403.41 683.547 403.679L684.227 407.328C684.227 407.328 681.911 406.544 681.192 408.699L681.391 410.751L681.523 411.158C681.58 411.332 681.595 411.516 681.567 411.697C681.539 411.878 681.469 412.049 681.362 412.198C681.318 412.249 681.288 412.311 681.276 412.378C681.265 412.444 681.272 412.513 681.296 412.576C681.344 412.725 681.355 412.884 681.33 413.039C681.305 413.193 681.244 413.34 681.152 413.467C681.06 413.594 680.94 413.697 680.801 413.769C680.662 413.841 680.507 413.879 680.351 413.881C679.499 413.891 678.65 413.957 677.807 414.079C677.126 414.278 675.065 413.692 674.384 414.079C673.704 414.467 672.266 413.786 672.266 413.786L672.654 412.122C672.654 412.122 672.389 411.309 672.72 411.016C673.051 410.723 672.853 408.179 672.56 407.461C672.56 407.461 671.387 406.354 670.668 406.515L671.614 402.307C671.818 401.915 672.12 401.582 672.492 401.342C672.863 401.102 673.29 400.962 673.732 400.936C674.465 401.002 675.196 400.793 675.784 400.35C675.784 400.35 675.018 401.75 677.032 402.052L677.524 402.166Z" fill="black"/>
<path d="M677.524 402.232C677.949 402.345 679.084 402.468 679.765 400.757L682.932 402.307C683.127 402.493 683.282 402.716 683.388 402.963C683.493 403.21 683.548 403.476 683.547 403.745L684.228 407.394C684.228 407.394 681.911 406.61 681.192 408.765L681.391 410.817C681.54 411.324 681.503 411.867 681.287 412.349C681.268 412.392 681.258 412.439 681.258 412.486C681.258 412.533 681.268 412.58 681.287 412.623C681.334 412.773 681.346 412.931 681.321 413.086C681.296 413.24 681.235 413.387 681.143 413.514C681.051 413.641 680.931 413.744 680.792 413.816C680.652 413.888 680.498 413.927 680.341 413.928C679.49 413.938 678.64 414.004 677.798 414.127C677.117 414.325 675.056 413.739 674.375 414.127C673.694 414.514 672.257 413.834 672.257 413.834L672.645 412.169C672.645 412.169 672.38 411.356 672.711 411.063C673.042 410.77 672.843 408.226 672.55 407.508C672.55 407.508 671.378 406.402 670.659 406.562L671.605 402.355C671.809 401.962 672.111 401.63 672.483 401.389C672.854 401.149 673.281 401.009 673.723 400.984C674.456 401.049 675.187 400.84 675.775 400.397C675.775 400.397 675.009 401.797 677.023 402.099L677.524 402.232Z" fill="#F55F44"/>
<path opacity="0.1" d="M678.725 396.606L675.954 398.336C676.024 398.648 676.078 398.964 676.115 399.282C676.431 399.407 676.768 399.472 677.108 399.471C677.784 399.423 678.422 399.135 678.904 398.658C678.779 397.981 678.719 397.294 678.725 396.606Z" fill="black"/>
<path d="M677.051 399.263C678.529 399.263 679.727 398.065 679.727 396.587C679.727 395.109 678.529 393.911 677.051 393.911C675.573 393.911 674.375 395.109 674.375 396.587C674.375 398.065 675.573 399.263 677.051 399.263Z" fill="#FDB797"/>
<path d="M680.994 394.535C681.641 394.535 682.166 394.01 682.166 393.363C682.166 392.715 681.641 392.19 680.994 392.19C680.346 392.19 679.821 392.715 679.821 393.363C679.821 394.01 680.346 394.535 680.994 394.535Z" fill="#72351C"/>
<path d="M681.221 394.601C680.924 394.602 680.638 394.49 680.42 394.289C680.203 394.087 680.07 393.81 680.048 393.514C680.048 393.514 680.048 393.571 680.048 393.599C680.048 393.91 680.172 394.208 680.392 394.428C680.612 394.648 680.91 394.772 681.221 394.772C681.532 394.772 681.83 394.648 682.05 394.428C682.27 394.208 682.393 393.91 682.393 393.599C682.393 393.599 682.393 393.542 682.393 393.514C682.372 393.81 682.239 394.087 682.021 394.289C681.804 394.49 681.518 394.602 681.221 394.601Z" fill="#72351C"/>
<path d="M680.549 395.717C680.259 395.662 679.999 395.498 679.824 395.26C679.649 395.021 679.57 394.725 679.604 394.431V394.507C679.548 394.813 679.615 395.129 679.791 395.385C679.968 395.641 680.239 395.817 680.545 395.873C680.851 395.93 681.167 395.862 681.423 395.686C681.679 395.509 681.855 395.238 681.911 394.932V394.847C681.839 395.139 681.657 395.392 681.404 395.554C681.151 395.716 680.845 395.774 680.549 395.717Z" fill="#72351C"/>
<path d="M679.642 398.554C679.351 398.498 679.092 398.335 678.916 398.096C678.741 397.858 678.662 397.562 678.696 397.268V397.343C678.64 397.649 678.707 397.965 678.884 398.221C679.06 398.478 679.331 398.653 679.637 398.71C679.943 398.766 680.259 398.699 680.515 398.522C680.771 398.346 680.947 398.075 681.003 397.769V397.684C680.931 397.976 680.75 398.229 680.496 398.391C680.243 398.553 679.937 398.611 679.642 398.554Z" fill="#72351C"/>
<path d="M681.221 393.977C680.923 393.978 680.635 393.865 680.417 393.661C680.2 393.457 680.068 393.178 680.048 392.88C680.048 392.88 680.048 392.937 680.048 392.966C680.048 393.277 680.172 393.575 680.392 393.795C680.612 394.015 680.91 394.138 681.221 394.138C681.532 394.138 681.83 394.015 682.05 393.795C682.27 393.575 682.393 393.277 682.393 392.966C682.393 392.966 682.393 392.909 682.393 392.88C682.374 393.178 682.242 393.457 682.024 393.661C681.806 393.865 681.519 393.978 681.221 393.977Z" fill="#72351C"/>
<path d="M679.585 393.344C679.587 393.046 679.702 392.759 679.908 392.543C680.113 392.327 680.393 392.198 680.691 392.181H680.606C680.295 392.181 679.997 392.304 679.777 392.524C679.557 392.744 679.434 393.042 679.434 393.353C679.434 393.664 679.557 393.962 679.777 394.182C679.997 394.402 680.295 394.526 680.606 394.526H680.691C680.39 394.509 680.107 394.376 679.901 394.156C679.695 393.936 679.582 393.645 679.585 393.344Z" fill="#72351C"/>
<path opacity="0.1" d="M680.767 404.407C680.89 404.986 680.89 405.585 680.767 406.165C680.767 406.165 680.607 407.697 680.862 407.962" fill="black"/>
<path opacity="0.1" d="M672.843 404.766C672.967 405.346 672.967 405.945 672.843 406.525C672.843 406.525 672.683 408.056 672.938 408.321" fill="black"/>
<path opacity="0.1" d="M672.777 411.054C673.031 411.145 673.308 411.145 673.562 411.054C673.87 410.96 674.199 410.96 674.508 411.054" fill="black"/>
<path opacity="0.1" d="M673.174 408.747C674.095 408.791 675.016 408.646 675.879 408.321C675.879 408.321 679.207 409.134 680.152 408.548" fill="black"/>
<path d="M672.172 422.797H671.387C671.038 422.797 670.754 423.081 670.754 423.431C670.754 423.781 671.038 424.064 671.387 424.064H672.172C672.522 424.064 672.806 423.781 672.806 423.431C672.806 423.081 672.522 422.797 672.172 422.797Z" fill="#FDB797"/>
<path d="M670.763 423.138L671.86 423.09L672.806 423.242H672.475L670.763 423.138Z" fill="#F0E4E4"/>
<path d="M678.157 417.833H679.254L680.2 417.928H679.869L678.157 417.833Z" fill="#F0E4E4"/>
<path d="M678.157 418.06H679.254L680.2 418.155H679.869L678.157 418.06Z" fill="#F0E4E4"/>
<path d="M678.157 418.297H679.254L680.2 418.391H679.869L678.157 418.297Z" fill="#F0E4E4"/>
<path d="M678.157 418.523H679.254L680.2 418.618H679.869L678.157 418.523Z" fill="#F0E4E4"/>
<path d="M670.763 424.017H671.86L672.806 424.13H672.475L670.763 424.017Z" fill="#F0E4E4"/>
<path d="M670.763 423.904H671.86L672.806 424.017H672.475L670.763 423.904Z" fill="#F0E4E4"/>
<path d="M670.763 423.79H671.86L672.806 423.904H672.475L670.763 423.79Z" fill="#F0E4E4"/>
<path d="M670.763 423.677H671.86L672.806 423.79H672.475L670.763 423.677Z" fill="#F0E4E4"/>
<path d="M670.763 422.967L671.86 422.92L672.806 423.071H672.475L670.763 422.967Z" fill="#F0E4E4"/>
<path d="M670.763 422.769L671.86 422.722L672.806 422.873H672.475L670.763 422.769Z" fill="#F0E4E4"/>
<path opacity="0.1" d="M677.505 394.875C677.4 395.875 677.53 396.885 677.883 397.826C678.059 398.282 678.137 398.77 678.112 399.259C678.088 399.747 677.961 400.225 677.741 400.662C677.887 400.696 678.038 400.694 678.182 400.658C678.327 400.622 678.461 400.552 678.573 400.454C678.808 400.248 679.012 400.009 679.179 399.745C679.354 399.529 679.48 399.277 679.547 399.008C679.576 398.583 679.512 398.157 679.358 397.759C679.175 397.035 679.042 396.299 678.961 395.556C678.904 395.102 678.961 393.798 678.451 393.665C677.94 393.533 677.6 394.497 677.505 394.875Z" fill="black"/>
<path d="M677.571 394.847C677.466 395.847 677.596 396.857 677.949 397.797C678.125 398.254 678.203 398.742 678.178 399.231C678.154 399.719 678.027 400.197 677.807 400.634C677.953 400.667 678.104 400.666 678.248 400.63C678.393 400.593 678.527 400.524 678.639 400.426C678.874 400.22 679.078 399.981 679.245 399.717C679.42 399.501 679.546 399.249 679.613 398.979C679.642 398.554 679.577 398.128 679.424 397.731C679.241 397.007 679.108 396.271 679.027 395.528C678.97 395.074 679.027 393.769 678.516 393.637C678.006 393.505 677.665 394.459 677.571 394.847Z" fill="#72351C"/>
<path opacity="0.1" d="M676.417 395.547C676.644 395.783 676.691 396.133 676.881 396.398C677.049 396.578 677.254 396.719 677.483 396.811C677.712 396.902 677.958 396.942 678.204 396.927C678.339 396.92 678.473 396.95 678.592 397.012C678.8 397.145 678.809 397.447 678.942 397.655C679.013 397.731 679.098 397.792 679.193 397.833C679.289 397.875 679.391 397.896 679.495 397.896C679.599 397.896 679.701 397.875 679.797 397.833C679.892 397.792 679.977 397.731 680.048 397.655C680.321 397.329 680.472 396.918 680.474 396.492C680.519 396.024 680.519 395.552 680.474 395.084C680.461 394.547 680.248 394.035 679.878 393.646C679.568 393.416 679.208 393.261 678.828 393.192C678.31 393.009 677.752 392.967 677.212 393.07C676.949 393.157 676.701 393.281 676.474 393.438C676.153 393.646 675.837 393.858 675.528 394.072C675.179 394.318 674.517 394.809 675.16 395.074C675.566 395.263 676.077 395.178 676.417 395.547Z" fill="black"/>
<path d="M676.484 395.509C676.711 395.745 676.758 396.095 676.947 396.36C677.115 396.54 677.321 396.681 677.55 396.773C677.778 396.864 678.025 396.904 678.271 396.89C678.405 396.882 678.539 396.912 678.658 396.975C678.866 397.107 678.876 397.41 679.008 397.618C679.079 397.693 679.165 397.754 679.26 397.795C679.355 397.837 679.458 397.858 679.561 397.858C679.665 397.858 679.768 397.837 679.863 397.795C679.958 397.754 680.044 397.693 680.114 397.618C680.388 397.291 680.538 396.88 680.54 396.455C680.586 395.986 680.586 395.514 680.54 395.046C680.527 394.509 680.315 393.997 679.944 393.609C679.634 393.379 679.275 393.223 678.895 393.155C678.376 392.971 677.818 392.929 677.278 393.032C677.016 393.119 676.768 393.243 676.54 393.4C676.219 393.609 675.904 393.82 675.595 394.034C675.245 394.28 674.583 394.772 675.226 395.036C675.633 395.225 676.172 395.15 676.484 395.509Z" fill="#72351C"/>
<path d="M678.224 417.833H679.32L680.266 417.928H679.954L678.224 417.833Z" fill="#F0E4E4"/>
<path d="M678.224 418.06H679.32L680.266 418.155H679.954L678.224 418.06Z" fill="#F0E4E4"/>
<path d="M678.224 418.297H679.32L680.266 418.391H679.954L678.224 418.297Z" fill="#F0E4E4"/>
<path d="M678.224 418.523H679.32L680.266 418.618H679.954L678.224 418.523Z" fill="#F0E4E4"/>
<path d="M677.751 431.071H678.848L679.793 431.165H679.462L677.751 431.071Z" fill="#F0E4E4"/>
<path d="M677.751 431.307H678.848L679.793 431.402H679.462L677.751 431.307Z" fill="#F0E4E4"/>
<path d="M677.751 431.534H678.848L679.793 431.629H679.462L677.751 431.534Z" fill="#F0E4E4"/>
<path d="M677.751 431.761H678.848L679.793 431.855H679.462L677.751 431.761Z" fill="#F0E4E4"/>
<path d="M824.242 350.444C827.921 350.444 830.903 347.462 830.903 343.784C830.903 340.105 827.921 337.124 824.242 337.124C820.564 337.124 817.582 340.105 817.582 343.784C817.582 347.462 820.564 350.444 824.242 350.444Z" fill="#F55F44"/>
<path d="M185.66 302.321C189.339 302.321 192.321 299.339 192.321 295.66C192.321 291.982 189.339 289 185.66 289C181.982 289 179 291.982 179 295.66C179 299.339 181.982 302.321 185.66 302.321Z" fill="#F55F44"/>
<path opacity="0.5" d="M555.66 221.321C559.339 221.321 562.321 218.339 562.321 214.66C562.321 210.982 559.339 208 555.66 208C551.982 208 549 210.982 549 214.66C549 218.339 551.982 221.321 555.66 221.321Z" fill="#47E6B1"/>
</g>
<path opacity="0.5" d="M564.66 401.032C568.339 401.032 571.321 397.957 571.321 394.163C571.321 390.37 568.339 387.294 564.66 387.294C560.982 387.294 558 390.37 558 394.163C558 397.957 560.982 401.032 564.66 401.032Z" fill="#47E6B1"/>
<path d="M983.66 90.3766C987.339 90.3766 990.321 87.3012 990.321 83.5075C990.321 79.7138 987.339 76.6384 983.66 76.6384C979.982 76.6384 977 79.7138 977 83.5075C977 87.3012 979.982 90.3766 983.66 90.3766Z" fill="#F55F44"/>
<path d="M442.66 745.5C446.339 745.5 449.321 742.425 449.321 738.631C449.321 734.837 446.339 731.762 442.66 731.762C438.982 731.762 436 734.837 436 738.631C436 742.425 438.982 745.5 442.66 745.5Z" fill="#00AEC8"/>
<path d="M953.66 759.164C952.741 758.752 952.003 758.006 951.584 757.068C951.165 756.13 951.096 755.066 951.389 754.079C951.435 753.926 951.464 753.768 951.474 753.608C951.504 753.154 951.391 752.702 951.151 752.32C950.912 751.938 950.558 751.646 950.144 751.488C949.73 751.331 949.278 751.315 948.855 751.445C948.432 751.574 948.061 751.842 947.797 752.207C947.706 752.334 947.629 752.473 947.569 752.618C947.17 753.565 946.446 754.327 945.537 754.759C944.627 755.191 943.596 755.263 942.638 754.96C942.49 754.912 942.337 754.883 942.182 754.872C941.742 754.841 941.304 754.958 940.933 755.205C940.562 755.453 940.28 755.817 940.127 756.244C939.974 756.671 939.959 757.137 940.085 757.574C940.21 758.01 940.469 758.393 940.823 758.664C940.947 758.759 941.081 758.838 941.223 758.9C942.141 759.312 942.879 760.058 943.298 760.996C943.717 761.934 943.787 762.998 943.493 763.985C943.447 764.138 943.418 764.296 943.408 764.456C943.378 764.91 943.491 765.362 943.731 765.744C943.97 766.126 944.324 766.418 944.738 766.576C945.152 766.733 945.604 766.749 946.027 766.619C946.45 766.489 946.821 766.222 947.085 765.857C947.176 765.729 947.253 765.591 947.313 765.445C947.712 764.498 948.436 763.736 949.345 763.305C950.255 762.873 951.287 762.801 952.244 763.103C952.392 763.151 952.545 763.181 952.7 763.192C953.14 763.223 953.578 763.106 953.949 762.859C954.32 762.611 954.602 762.247 954.755 761.82C954.908 761.393 954.923 760.926 954.798 760.49C954.672 760.054 954.413 759.671 954.059 759.399C953.935 759.305 953.801 759.226 953.66 759.164Z" fill="#FDD835"/>
<path d="M257.66 68.9749C256.741 68.5628 256.003 67.8166 255.584 66.8787C255.165 65.9407 255.096 64.8766 255.389 63.8892C255.435 63.7365 255.464 63.5786 255.474 63.4189C255.504 62.9648 255.391 62.5128 255.151 62.1307C254.912 61.7485 254.558 61.4567 254.144 61.2989C253.73 61.1412 253.278 61.1259 252.855 61.2555C252.432 61.385 252.061 61.6524 251.797 62.0176C251.706 62.1451 251.629 62.2832 251.569 62.4292C251.17 63.376 250.446 64.1381 249.537 64.57C248.627 65.002 247.596 65.0735 246.638 64.7711C246.49 64.7232 246.337 64.6936 246.182 64.6829C245.742 64.6519 245.304 64.7687 244.933 65.016C244.563 65.2632 244.28 65.6276 244.127 66.0546C243.974 66.4815 243.959 66.9481 244.084 67.3844C244.21 67.8208 244.469 68.2035 244.823 68.4751C244.947 68.5694 245.081 68.6483 245.223 68.7103C246.141 69.1224 246.88 69.8685 247.298 70.8065C247.717 71.7445 247.787 72.8086 247.493 73.796C247.447 73.9487 247.418 74.1066 247.408 74.2663C247.378 74.7204 247.491 75.1724 247.731 75.5545C247.97 75.9367 248.324 76.2285 248.738 76.3863C249.152 76.544 249.604 76.5593 250.027 76.4297C250.45 76.3001 250.821 76.0328 251.085 75.6676C251.176 75.5401 251.253 75.402 251.313 75.256C251.712 74.3092 252.436 73.5471 253.345 73.1152C254.255 72.6832 255.287 72.6116 256.244 72.9141C256.392 72.962 256.545 72.9916 256.7 73.0022C257.14 73.0333 257.578 72.9165 257.949 72.6692C258.32 72.4219 258.602 72.0576 258.755 71.6306C258.908 71.2036 258.923 70.7371 258.798 70.3007C258.672 69.8644 258.413 69.4817 258.059 69.2101C257.935 69.1158 257.801 69.0368 257.66 68.9749Z" fill="#FDD835"/>
<path d="M748.667 8.07473C747.749 7.66266 747.01 6.9165 746.591 5.97853C746.173 5.04057 746.103 3.97644 746.396 2.98907C746.443 2.83634 746.472 2.67845 746.482 2.51872C746.512 2.06461 746.399 1.61266 746.159 1.2305C745.919 0.848347 745.566 0.556549 745.152 0.398785C744.738 0.24102 744.286 0.225775 743.863 0.35533C743.439 0.484886 743.068 0.752274 742.805 1.11747C742.714 1.24495 742.637 1.38309 742.577 1.52903C742.177 2.47589 741.454 3.23795 740.545 3.66988C739.635 4.10181 738.603 4.1734 737.646 3.87098C737.498 3.82304 737.345 3.79343 737.19 3.78279C736.746 3.74975 736.304 3.86698 735.931 4.11667C735.558 4.36636 735.274 4.73485 735.122 5.16617C734.971 5.59748 734.96 6.06804 735.091 6.50635C735.223 6.94466 735.489 7.32675 735.85 7.59459C735.974 7.68887 736.108 7.7678 736.249 7.82976C737.167 8.24183 737.906 8.988 738.325 9.92596C738.744 10.8639 738.813 11.9281 738.52 12.9154C738.474 13.0682 738.445 13.2261 738.434 13.3858C738.399 13.846 738.511 14.3056 738.754 14.6937C738.996 15.0819 739.355 15.3772 739.776 15.5342C740.197 15.6911 740.657 15.7011 741.084 15.5626C741.511 15.4241 741.882 15.1447 742.14 14.7674C742.231 14.64 742.308 14.5018 742.368 14.3559C742.768 13.409 743.491 12.647 744.4 12.215C745.31 11.7831 746.342 11.7115 747.299 12.0139C747.447 12.0619 747.6 12.0915 747.755 12.1021C748.195 12.1332 748.634 12.0163 749.004 11.7691C749.375 11.5218 749.658 11.1574 749.811 10.7305C749.964 10.3035 749.978 9.83694 749.853 9.40059C749.727 8.96425 749.468 8.5816 749.114 8.30991C748.975 8.2121 748.825 8.13306 748.667 8.07473Z" fill="#4D8AF0"/>
<path opacity="0.5" d="M6.66034 112.738C10.3387 112.738 13.3207 109.663 13.3207 105.869C13.3207 102.075 10.3387 99 6.66034 99C2.98194 99 0 102.075 0 105.869C0 109.663 2.98194 112.738 6.66034 112.738Z" fill="#47E6B1"/>
<defs>
<linearGradient id="paint0_linear" x1="566.395" y1="705.929" x2="566.395" y2="488.701" gradientUnits="userSpaceOnUse">
<stop stop-color="#808080" stop-opacity="0.25"/>
<stop offset="0.54" stop-color="#808080" stop-opacity="0.12"/>
<stop offset="1" stop-color="#808080" stop-opacity="0.1"/>
</linearGradient>
<linearGradient id="paint1_linear" x1="301522" y1="231996" x2="301522" y2="129" gradientUnits="userSpaceOnUse">
<stop stop-color="#808080" stop-opacity="0.25"/>
<stop offset="0.54" stop-color="#808080" stop-opacity="0.12"/>
<stop offset="1" stop-color="#808080" stop-opacity="0.1"/>
</linearGradient>
<linearGradient id="paint2_linear" x1="184913" y1="271056" x2="184913" y2="116820" gradientUnits="userSpaceOnUse">
<stop stop-color="#808080" stop-opacity="0.25"/>
<stop offset="0.54" stop-color="#808080" stop-opacity="0.12"/>
<stop offset="1" stop-color="#808080" stop-opacity="0.1"/>
</linearGradient>
<linearGradient id="paint3_linear" x1="13851.5" y1="25320.1" x2="13851.5" y2="22431.5" gradientUnits="userSpaceOnUse">
<stop stop-color="#808080" stop-opacity="0.25"/>
<stop offset="0.54" stop-color="#808080" stop-opacity="0.12"/>
<stop offset="1" stop-color="#808080" stop-opacity="0.1"/>
</linearGradient>
<clipPath id="clip0">
<rect x="142" y="129" width="900" height="576.938" fill="white"/>
</clipPath>
</defs>
</svg>
