<svg width="155" height="209" viewBox="0 0 155 209" fill="none" xmlns="http://www.w3.org/2000/svg">
<path d="M154 104.5C154 110.779 154.091 116.914 154.179 122.87C154.294 130.633 154.405 138.092 154.304 145.169C154.125 157.661 153.286 168.867 150.661 178.258C148.039 187.639 143.644 195.178 136.37 200.381C129.09 205.588 118.865 208.5 104.5 208.5C47.0624 208.5 0.5 161.938 0.5 104.5C0.5 47.0624 47.0624 0.5 104.5 0.5C118.865 0.5 129.09 3.41171 136.37 8.6188C143.644 13.8217 148.039 21.3606 150.661 30.7419C153.286 40.1328 154.125 51.3386 154.304 63.831C154.405 70.9083 154.294 78.3674 154.179 86.1304C154.091 92.0864 154 98.2213 154 104.5Z" fill="#F5F7FB" stroke="#DEDEDE"/>
</svg>
