<svg width="200" height="140" viewBox="0 0 200 140" fill="none" xmlns="http://www.w3.org/2000/svg">
<g clip-path="url(#clip0)">
<path d="M96.2793 30.1526V55.8832H145.347" fill="#F2F2F2"/>
<path d="M152.528 56.0827H96.0801V5.21997H96.479V55.6838H152.528V56.0827Z" fill="#3F3D56"/>
<path d="M96.8949 56.1404L96.5381 55.962C98.9916 51.0529 104.109 47.5706 109.576 47.0906C110.519 47.0077 111.507 46.9996 112.463 46.9917C115.104 46.9698 117.835 46.9472 119.826 45.3323C121.3 44.137 122.012 42.3788 122.767 40.5174C123.136 39.5468 123.568 38.6014 124.06 37.6871C125.013 36.058 126.349 34.6859 127.952 33.6898C129.555 32.6937 131.377 32.1037 133.26 31.9709C133.405 31.9624 133.554 31.9572 133.705 31.9556C134.026 31.5255 134.38 31.1197 134.761 30.7416C136.694 28.8298 139.169 27.5767 141.563 26.3648L142.13 26.0775C144.663 24.7887 147.286 23.3432 149.077 21.1038C150.197 19.6703 150.944 17.9814 151.251 16.1884C151.558 14.3954 151.416 12.5542 150.837 10.8298L151.213 10.6985C151.814 12.4868 151.961 14.3961 151.643 16.2555C151.325 18.1149 150.55 19.8663 149.389 21.3529C147.548 23.6544 144.883 25.1245 142.31 26.433L141.743 26.7207C139.377 27.9187 136.93 29.1575 135.042 31.0252C134.743 31.3206 134.463 31.6337 134.202 31.9626C136.457 32.0512 139.079 32.9212 140.553 35.1752C140.966 35.8339 141.238 36.5715 141.351 37.3412C141.464 38.1108 141.415 38.8955 141.207 39.6452C140.852 40.9535 140.06 41.9702 138.977 42.5081C137.835 43.076 136.484 43.0595 135.174 42.4615C134.411 42.1155 133.733 41.6075 133.186 40.9728C132.639 40.3382 132.237 39.5921 132.007 38.7864C131.404 36.455 132.198 34.148 133.414 32.3625C133.37 32.3643 133.326 32.3666 133.283 32.3692C131.466 32.4973 129.708 33.0666 128.162 34.0276C126.615 34.9887 125.326 36.3124 124.407 37.8842C123.924 38.7834 123.499 39.7131 123.137 40.6673C122.396 42.4937 121.631 44.3821 120.077 45.6422C117.978 47.3449 115.176 47.3681 112.466 47.3906C111.519 47.3985 110.538 47.4066 109.611 47.488C104.279 47.9562 99.2879 51.3525 96.8949 56.1404ZM133.906 32.3536C132.655 34.0876 131.797 36.3805 132.393 38.6864C132.608 39.4349 132.982 40.1278 133.491 40.7171C134 41.3063 134.631 41.7777 135.34 42.0986C136.538 42.6455 137.767 42.6641 138.8 42.1508C139.779 41.6643 140.497 40.7374 140.822 39.5406C141.011 38.8449 141.055 38.1178 140.951 37.4044C140.847 36.6911 140.598 36.0066 140.219 35.3936C139.002 33.532 136.57 32.3756 133.906 32.3536Z" fill="#3F3D56"/>
<path d="M123.806 42.1206C125.789 42.1206 127.396 40.5131 127.396 38.5302C127.396 36.5474 125.789 34.9399 123.806 34.9399C121.823 34.9399 120.216 36.5474 120.216 38.5302C120.216 40.5131 121.823 42.1206 123.806 42.1206Z" fill="#F55F44"/>
<path d="M86.3607 103.745H0V62.665H86.3607V103.745ZM0.398924 103.346H85.9618V63.064H0.398924V103.346Z" fill="#3F3D56"/>
<path d="M197.008 134.671H64.3662V135.07H197.008V134.671Z" fill="#3F3D56"/>
<path d="M166.022 46.3745L164.382 54.5761C164.382 54.5761 162.273 59.2628 163.21 62.5434L163.913 63.9494L168.365 59.9658L170.005 48.9522L166.022 46.3745Z" fill="#A0616A"/>
<path d="M156.882 122.298L154.305 132.14L157.351 133.546L160.163 131.202L161.803 123.704L156.882 122.298Z" fill="#A0616A"/>
<path d="M191.446 118.431L192.735 132.609H199.296L196.133 117.025L191.446 118.431Z" fill="#A0616A"/>
<path d="M181.253 66.2928L182.581 59.802L167.193 56.2166L163.912 61.3718C163.912 61.3718 158.288 70.2765 156.882 97.4589C155.476 124.641 155.008 124.407 155.008 124.407L166.49 125.579L172.348 87.617L186.877 122.298L197.891 119.252L184.065 77.5407C184.065 77.5407 185.002 71.4481 181.253 66.2928Z" fill="#2F2E41"/>
<path d="M157.586 130.031L155.946 131.671L155.009 130.734L155.52 127.291L152.9 128.859C152.9 128.859 148.213 128.156 148.682 133.077C148.682 133.077 147.979 134.717 151.962 136.592C155.946 138.467 158.055 139.638 158.055 139.638C158.055 139.638 161.804 139.404 161.804 138.232C161.804 137.061 160.623 129.105 160.623 129.105L157.586 130.031Z" fill="#2F2E41"/>
<path d="M195.782 130.031L194.141 131.671L193.204 130.734L192.22 127.291L191.095 128.859C191.095 128.859 186.408 128.156 186.877 133.077C186.877 133.077 186.174 134.717 190.158 136.592C194.141 138.467 196.25 139.638 196.25 139.638C196.25 139.638 199.999 139.404 199.999 138.232C199.999 137.061 198.818 129.105 198.818 129.105L195.782 130.031Z" fill="#2F2E41"/>
<path d="M177.269 32.7831C181.022 32.7831 184.065 29.7406 184.065 25.9875C184.065 22.2344 181.022 19.1919 177.269 19.1919C173.516 19.1919 170.474 22.2344 170.474 25.9875C170.474 29.7406 173.516 32.7831 177.269 32.7831Z" fill="#A0616A"/>
<path d="M175.161 31.1431L175.63 39.1104H184.534L181.957 28.3311L175.161 31.1431Z" fill="#A0616A"/>
<path d="M170.005 35.8297L177.27 35.3611L185.003 35.8297C185.003 35.8297 191.564 39.3447 188.049 48.9523C184.534 58.5599 181.956 61.6062 181.956 61.6062L174.458 58.3256H172.114C172.114 58.3256 171.411 57.6226 171.177 57.6226C170.943 57.6226 166.49 58.3256 166.49 58.3256C166.49 58.3256 165.319 53.4046 166.959 52.936C168.599 52.4673 169.537 49.8896 169.537 49.8896L170.005 35.8297Z" fill="#D0CDE1"/>
<path d="M171.411 36.5327L170.005 35.8296L165.084 47.312L170.473 50.8269L171.411 36.5327Z" fill="#D0CDE1"/>
<path d="M167.546 25.402C167.546 25.402 164.265 16.966 170.75 16.1588C170.75 16.1588 178.928 11.1357 184.183 19.5437L188.331 29.7815L186.945 29.5061L186.769 30.8855L185.001 31.9702L183.671 30.5959L183.891 32.6998L168.657 39.1695C168.657 39.1695 174.401 32.8093 172.185 25.3105L171.286 27.1462L167.546 25.402Z" fill="#2F2E41"/>
<path d="M72.8035 129.766C71.9514 132.916 69.0331 134.866 69.0331 134.866C69.0331 134.866 67.4961 131.711 68.3481 128.561C69.2001 125.411 72.1185 123.461 72.1185 123.461C72.1185 123.461 73.6555 126.617 72.8035 129.766Z" fill="#F55F44"/>
<path d="M65.0522 129.766C65.9042 132.916 68.8226 134.866 68.8226 134.866C68.8226 134.866 70.3596 131.711 69.5076 128.561C68.6555 125.411 65.7372 123.461 65.7372 123.461C65.7372 123.461 64.2002 126.617 65.0522 129.766Z" fill="#F55F44"/>
<path d="M66.3039 129.089C68.6419 131.365 68.9275 134.864 68.9275 134.864C68.9275 134.864 65.4224 134.673 63.0845 132.397C60.7465 130.121 60.4609 126.622 60.4609 126.622C60.4609 126.622 63.966 126.813 66.3039 129.089Z" fill="#3F3D56"/>
<path d="M71.5513 129.089C69.2133 131.365 68.9277 134.864 68.9277 134.864C68.9277 134.864 72.4328 134.673 74.7707 132.397C77.1087 130.121 77.3943 126.622 77.3943 126.622C77.3943 126.622 73.8892 126.813 71.5513 129.089Z" fill="#3F3D56"/>
<path d="M37.2645 16.9241C38.1316 14.0837 39.7316 11.5217 41.9034 9.49604C44.0752 7.47036 46.7422 6.05243 49.636 5.38493C47.6104 3.21229 45.0485 1.6112 42.2079 0.74264C39.3673 -0.125921 36.3481 -0.231341 33.4538 0.436978C30.5595 1.1053 27.8922 2.5238 25.72 4.54987C23.5477 6.57595 21.9472 9.13819 21.0792 11.979C20.2113 14.8198 20.1065 17.839 20.7754 20.7332C21.4444 23.6273 22.8634 26.2943 24.89 28.4661C26.9165 30.6379 29.4791 32.2379 32.3201 33.1053C35.161 33.9726 38.1803 34.0768 41.0743 33.4072C39.0477 31.2364 37.6285 28.57 36.9597 25.6764C36.2909 22.7828 36.3961 19.7642 37.2645 16.9241Z" fill="#F55F44"/>
<path d="M60.9072 6.45599C58.0671 5.58479 55.047 5.48067 52.1535 6.15418C54.1796 8.32544 55.5983 10.9918 56.2671 13.8852C56.9358 16.7787 56.8311 19.7972 55.9633 22.6373C55.0956 25.4774 53.4954 28.039 51.3237 30.0646C49.1521 32.0902 46.4854 33.5083 43.5918 34.1765C45.3619 36.0743 47.5449 37.5396 49.9719 38.4588C52.3989 39.378 55.0049 39.7265 57.5881 39.4775C60.1714 39.2284 62.6628 38.3884 64.8694 37.0224C67.0761 35.6564 68.939 33.8011 70.3139 31.6C71.6888 29.3989 72.5389 26.911 72.7985 24.3288C73.058 21.7465 72.72 19.1392 71.8107 16.7085C70.9013 14.2778 69.445 12.0888 67.5543 10.311C65.6636 8.53322 63.3893 7.21419 60.9072 6.45599Z" fill="#3F3D56"/>
<path d="M54.5247 22.1977C56.8889 14.4595 55.1832 7.07977 50.7149 5.71454C46.2465 4.34932 40.7076 9.51559 38.3434 17.2537C35.9791 24.9919 37.6848 32.3716 42.1532 33.7368C46.6215 35.1021 52.1604 29.9358 54.5247 22.1977Z" fill="#D0CDE1"/>
<path d="M151.531 15.3925C153.514 15.3925 155.121 13.7851 155.121 11.8022C155.121 9.81935 153.514 8.21191 151.531 8.21191C149.548 8.21191 147.94 9.81935 147.94 11.8022C147.94 13.7851 149.548 15.3925 151.531 15.3925Z" fill="#F55F44"/>
<path d="M141.757 30.1528C143.74 30.1528 145.348 28.5454 145.348 26.5625C145.348 24.5796 143.74 22.9722 141.757 22.9722C139.774 22.9722 138.167 24.5796 138.167 26.5625C138.167 28.5454 139.774 30.1528 141.757 30.1528Z" fill="#F55F44"/>
<path d="M67.373 71.9688H1.73535V100.962H67.373V71.9688Z" fill="#F2F2F2"/>
<path d="M67.4912 70.0205H4.99512V75.5657H67.4912V70.0205Z" fill="#F55F44"/>
<path d="M63.5197 72.0437H8.9668V73.5424H63.5197V72.0437Z" fill="#3F3D56"/>
<path d="M36.1685 74.8162C37.3273 74.8162 38.2667 73.8768 38.2667 72.7181C38.2667 71.5593 37.3273 70.6199 36.1685 70.6199C35.0097 70.6199 34.0703 71.5593 34.0703 72.7181C34.0703 73.8768 35.0097 74.8162 36.1685 74.8162Z" fill="#3F3D56"/>
<path d="M52.5048 79.9121H19.833V95.4987H52.5048V79.9121Z" fill="#F55F44"/>
<path opacity="0.15" d="M36.1683 90.7026C37.8237 90.7026 39.1657 89.3606 39.1657 87.7052C39.1657 86.0497 37.8237 84.7078 36.1683 84.7078C34.5129 84.7078 33.1709 86.0497 33.1709 87.7052C33.1709 89.3606 34.5129 90.7026 36.1683 90.7026Z" fill="black"/>
<path opacity="0.3" d="M46.6595 90.7026C48.315 90.7026 49.6569 89.3606 49.6569 87.7052C49.6569 86.0497 48.315 84.7078 46.6595 84.7078C45.0041 84.7078 43.6621 86.0497 43.6621 87.7052C43.6621 89.3606 45.0041 90.7026 46.6595 90.7026Z" fill="white"/>
<path opacity="0.3" d="M25.6771 90.7026C27.3325 90.7026 28.6745 89.3606 28.6745 87.7052C28.6745 86.0497 27.3325 84.7078 25.6771 84.7078C24.0217 84.7078 22.6797 86.0497 22.6797 87.7052C22.6797 89.3606 24.0217 90.7026 25.6771 90.7026Z" fill="black"/>
</g>
<defs>
<clipPath id="clip0">
<rect width="200" height="139.639" fill="white"/>
</clipPath>
</defs>
</svg>
