<?xml version="1.0"?>
<svg xmlns="http://www.w3.org/2000/svg" xmlns:xlink="http://www.w3.org/1999/xlink" version="1.1" id="Capa_1" x="0px" y="0px" width="512px" height="512px" viewBox="0 0 63.067 63.067" style="enable-background:new 0 0 63.067 63.067;" xml:space="preserve"><g><g>
	<g>
		<path d="M12.121,40.633L12.121,40.633l-0.828-0.826L10.47,40.63h-0.002L0.342,50.756c-0.456,0.456-0.456,1.195,0,1.651    c0.454,0.456,1.195,0.456,1.651,0l8.132-8.13v16.602c0,0.644,0.524,1.168,1.167,1.168c0.646,0,1.168-0.524,1.168-1.168V44.278    l8.134,8.13c0.229,0.229,0.527,0.342,0.826,0.342s0.598-0.113,0.828-0.342c0.457-0.456,0.457-1.195,0-1.651L12.121,40.633z" data-original="#000000" class="active-path" data-old_color="#000000" fill="#393E41"/>
		<path d="M32.361,21.242C32.361,21.242,32.361,21.239,32.361,21.242l-0.828-0.828l-0.824,0.828c0,0,0,0-0.002,0.002L20.582,31.368    c-0.456,0.456-0.456,1.195,0,1.651c0.454,0.456,1.195,0.456,1.652,0l8.132-8.135v35.995c0,0.644,0.524,1.168,1.168,1.168    c0.646,0,1.168-0.524,1.168-1.168V24.884l8.134,8.132c0.229,0.229,0.527,0.34,0.826,0.34s0.598-0.113,0.828-0.34    c0.454-0.456,0.454-1.197,0-1.651L32.361,21.242z" data-original="#000000" class="active-path" data-old_color="#000000" fill="#393E41"/>
		<path d="M62.727,11.97L52.601,1.847c0,0,0,0-0.002-0.002L51.773,1.02l-0.824,0.824h-0.002L40.821,11.968    c-0.456,0.455-0.456,1.197,0,1.652c0.454,0.455,1.195,0.455,1.651,0l8.133-8.131v55.389c0,0.646,0.524,1.168,1.168,1.168    c0.646,0,1.168-0.522,1.168-1.168V5.489l8.134,8.131c0.229,0.229,0.527,0.341,0.826,0.341s0.598-0.114,0.827-0.341    C63.181,13.167,63.181,12.425,62.727,11.97z" data-original="#000000" class="active-path" data-old_color="#000000" fill="#393E41"/>
	</g>
</g></g> </svg>
