<svg width="250" height="150" viewBox="0 0 250 150" fill="none" xmlns="http://www.w3.org/2000/svg">
<path d="M249.5 84.3882C249.5 93.9985 245.056 102.87 237.462 110.791C229.865 118.715 219.14 125.662 206.651 131.404C181.673 142.887 149.743 149.5 121.99 149.5C94.2398 149.5 63.8183 142.887 40.3503 131.409C16.8449 119.912 0.5 103.635 0.5 84.3882C0.5 65.1107 16.1705 47.1438 39.3292 32.4523C62.4298 17.7976 92.8281 6.50404 121.999 0.508695C152.673 5.7566 184.573 17.0505 208.8 31.8939C220.926 39.3231 231.11 47.63 238.259 56.496C245.407 65.3611 249.5 74.7598 249.5 84.3882Z" fill="#F5F7FB" stroke="#DEDEDE"/>
</svg>
