<svg width="800" height="741" viewBox="0 0 800 741" fill="none" xmlns="http://www.w3.org/2000/svg">
<g clip-path="url(#clip0)">
<g opacity="0.5">
<path opacity="0.5" d="M572.532 123.715H146.461V696.257H572.532V123.715Z" fill="url(#paint0_linear)"/>
</g>
<path d="M564.77 131.487H152.01V684.057H564.77V131.487Z" fill="#F5F7FB"/>
<path d="M326.214 154.784H184.19V159.221H326.214V154.784Z" fill="#E0E0E0"/>
<path opacity="0.7" d="M326.214 174.755H184.19V179.192H326.214V174.755Z" fill="#00AEC8"/>
<path d="M489.321 154.784H347.297V159.221H489.321V154.784Z" fill="#E0E0E0"/>
<path d="M511.506 281.283H369.482V285.72H511.506V281.283Z" fill="#E0E0E0"/>
<path d="M514.841 293.482H372.817V297.919H514.841V293.482Z" fill="#E0E0E0"/>
<path d="M521.501 305.691H379.478V310.128H521.501V305.691Z" fill="#E0E0E0"/>
<path d="M511.506 477.672H369.482V482.109H511.506V477.672Z" fill="#E0E0E0"/>
<path d="M514.841 489.881H372.817V494.318H514.841V489.881Z" fill="#E0E0E0"/>
<path d="M521.501 502.081H379.478V506.518H521.501V502.081Z" fill="#E0E0E0"/>
<g opacity="0.5">
<path opacity="0.5" d="M336.2 235.781H185.302V388.903H336.2V235.781Z" fill="url(#paint1_linear)"/>
</g>
<path d="M334.774 239.116H186.252V385.577H334.774V239.116Z" fill="#F5F5F5"/>
<g opacity="0.5">
<path opacity="0.5" d="M330.014 247.99H191.487V343.411H330.014V247.99Z" fill="url(#paint2_linear)"/>
</g>
<path d="M329.055 249.102H192.437V341.197H329.055V249.102Z" fill="white"/>
<path opacity="0.4" d="M180.855 337.872L215.259 284.608L229.682 307.905L260.751 275.734L287.382 307.905L310.679 260.2L370.594 355.62L176.418 348.96L180.855 337.872Z" fill="#00AEC8"/>
<path opacity="0.4" d="M207.487 272.399C213.002 272.399 217.473 267.928 217.473 262.413C217.473 256.898 213.002 252.428 207.487 252.428C201.972 252.428 197.501 256.898 197.501 262.413C197.501 267.928 201.972 272.399 207.487 272.399Z" fill="#6C63FF"/>
<g opacity="0.5">
<path opacity="0.5" d="M336.2 432.181H185.302V585.302H336.2V432.181Z" fill="url(#paint3_linear)"/>
</g>
<path d="M334.774 435.506H186.252V581.967H334.774V435.506Z" fill="#F5F5F5"/>
<g opacity="0.5">
<path opacity="0.5" d="M330.014 444.39H191.487V539.81H330.014V444.39Z" fill="url(#paint4_linear)"/>
</g>
<path d="M329.055 445.492H192.437V537.587H329.055V445.492Z" fill="white"/>
<path opacity="0.4" d="M180.855 534.261L215.259 480.998L229.682 504.304L260.751 472.124L287.382 504.304L310.679 456.589L370.594 552.009L176.418 545.359L180.855 534.261Z" fill="#BDBDBD"/>
<path opacity="0.4" d="M207.487 468.798C213.002 468.798 217.473 464.327 217.473 458.812C217.473 453.297 213.002 448.827 207.487 448.827C201.972 448.827 197.501 453.297 197.501 458.812C197.501 464.327 201.972 468.798 207.487 468.798Z" fill="#BDBDBD"/>
<g opacity="0.5">
<path opacity="0.5" d="M320.612 95.4268L209.012 656.987L626.912 740.036L738.511 178.476L320.612 95.4268Z" fill="url(#paint5_linear)"/>
</g>
<path d="M324.537 104.128L216.83 646.1L621.673 726.555L729.38 184.583L324.537 104.128Z" fill="white"/>
<path d="M636.309 192.088L348.997 134.99L348.132 139.342L635.444 196.44L636.309 192.088Z" fill="#E0E0E0"/>
<path d="M554.558 603.471L267.245 546.373L266.38 550.725L553.693 607.823L554.558 603.471Z" fill="#E0E0E0"/>
<path d="M484.276 615.516L262.262 571.395L261.397 575.747L483.411 619.868L484.276 615.516Z" fill="#E0E0E0"/>
<path opacity="0.7" d="M339.995 612.87L257.29 596.433L256.425 600.785L339.13 617.222L339.995 612.87Z" fill="#00AEC8"/>
<path opacity="0.7" d="M487.665 188.574L344.014 160.026L343.149 164.378L486.801 192.926L487.665 188.574Z" fill="#00AEC8"/>
<path d="M598.062 236.527L339.051 185.054L338.186 189.406L597.197 240.879L598.062 236.527Z" fill="#E0E0E0"/>
<path opacity="0.7" d="M397.189 222.633L334.072 210.089L333.207 214.441L396.324 226.985L397.189 222.633Z" fill="#3AD29F"/>
<path d="M616.415 292.219L329.102 235.121L328.237 239.473L615.55 296.57L616.415 292.219Z" fill="#E0E0E0"/>
<g opacity="0.5">
<path opacity="0.5" d="M354.416 340.85L325.003 488.853L582.924 540.11L612.337 392.106L354.416 340.85Z" fill="url(#paint6_linear)"/>
</g>
<path d="M610.536 392.87L355.877 342.262L327.113 487.004L581.772 537.612L610.536 392.87Z" fill="white"/>
<path d="M611.44 317.257L324.128 260.159L323.263 264.511L610.576 321.609L611.44 317.257Z" fill="#E0E0E0"/>
<path d="M410.217 373.423L378.654 367.15L357.675 472.715L389.238 478.988L410.217 373.423Z" fill="#00AEC8"/>
<path d="M459.885 419.497L428.322 413.224L414.264 483.964L445.827 490.237L459.885 419.497Z" fill="#3AD29F"/>
<path d="M509.996 463.394L478.433 457.122L470.864 495.208L502.427 501.481L509.996 463.394Z" fill="#F55F44"/>
<path d="M574.374 435.461L542.811 429.188L527.454 506.461L559.017 512.734L574.374 435.461Z" fill="#FDD835"/>
<path d="M666.461 332.551C652.771 318.312 636.371 306.955 618.226 299.149C600.081 291.343 580.559 287.245 560.807 287.096C541.055 286.947 521.472 290.751 503.212 298.283C484.952 305.815 468.383 316.924 454.48 330.955C398.423 387.468 397.473 479.487 452.304 537.197C476.392 562.551 508.675 578.564 543.437 582.4C578.198 586.236 613.196 577.648 642.233 558.157L749.302 669.52C750.627 670.898 752.446 671.693 754.358 671.731C756.27 671.768 758.118 671.045 759.496 669.72L786.176 644.066C787.554 642.741 788.349 640.922 788.386 639.01C788.424 637.099 787.7 635.25 786.375 633.872L679.335 522.518C699.859 494.39 709.818 459.932 707.464 425.192C705.11 390.452 690.592 357.652 666.461 332.551ZM633.112 511.601C618.007 526.122 598.936 535.838 578.31 539.52C557.684 543.202 536.429 540.685 517.233 532.288C498.037 523.891 481.762 509.99 470.467 492.343C459.171 474.696 453.362 454.096 453.774 433.148C454.186 412.2 460.8 391.844 472.781 374.655C484.761 357.466 501.57 344.215 521.081 336.579C540.592 328.943 561.93 327.263 582.395 331.754C602.861 336.244 621.535 346.702 636.057 361.805C645.7 371.834 653.273 383.664 658.343 396.62C663.414 409.576 665.883 423.403 665.61 437.313C665.336 451.223 662.325 464.943 656.749 477.689C651.173 490.436 643.141 501.959 633.112 511.601Z" fill="url(#paint7_linear)"/>
<path d="M481.226 405.758C469.311 405.758 469.292 424.276 481.226 424.276C493.159 424.276 493.159 405.758 481.226 405.758Z" fill="url(#paint8_linear)"/>
<path d="M564.276 346.442C532.209 345.72 503.031 361.805 487.515 386.09C482.451 394.014 496.827 401.017 501.862 393.131C514.708 373.026 539.116 360.257 565.52 360.922C593.188 361.615 618.366 377.444 631.696 399.411C636.751 407.743 650.005 400.171 644.998 391.886C628.789 365.283 597.397 347.23 564.276 346.442Z" fill="url(#paint9_linear)"/>
<path d="M678.081 326.926C664.391 312.687 647.991 301.331 629.846 293.525C611.701 285.718 592.179 281.62 572.426 281.471C552.674 281.323 533.092 285.126 514.832 292.658C496.572 300.191 480.003 311.299 466.1 325.33C410.043 381.843 409.093 473.862 463.924 531.573C488.013 556.925 520.297 572.936 555.058 576.771C589.82 580.605 624.817 572.015 653.853 552.523L760.912 663.896C762.238 665.274 764.056 666.069 765.968 666.106C767.88 666.144 769.728 665.42 771.107 664.095L797.786 638.442C799.164 637.116 799.959 635.298 799.997 633.386C800.034 631.474 799.311 629.626 797.986 628.247L690.917 516.884C711.443 488.761 721.408 454.307 719.06 419.57C716.713 384.832 702.204 352.032 678.081 326.926ZM644.732 505.9C629.627 520.421 610.556 530.137 589.93 533.819C569.304 537.502 548.049 534.985 528.853 526.587C509.657 518.19 493.382 504.289 482.087 486.642C470.791 468.995 464.982 448.395 465.394 427.447C465.806 406.499 472.42 386.143 484.401 368.954C496.381 351.765 513.19 338.515 532.701 330.878C552.212 323.242 573.55 321.563 594.015 326.053C614.481 330.543 633.155 341.001 647.677 356.105C657.32 366.133 664.893 377.963 669.963 390.919C675.034 403.875 677.503 417.702 677.229 431.612C676.956 445.522 673.945 459.242 668.369 471.989C662.793 484.735 654.761 496.258 644.732 505.9Z" fill="#00AEC8"/>
<path d="M492.846 400.124C480.931 400.124 480.912 418.641 492.846 418.641C504.779 418.641 504.779 400.124 492.846 400.124Z" fill="#00AEC8"/>
<path d="M575.895 340.817C543.829 340.095 514.651 356.181 499.135 380.466C494.071 388.39 508.446 395.392 513.482 387.506C526.328 367.402 550.736 354.632 577.14 355.297C604.808 355.991 629.986 371.82 643.316 393.786C648.371 402.119 661.625 394.546 656.618 386.261C640.38 359.582 609.026 341.53 575.895 340.817Z" fill="#00AEC8"/>
<path d="M118.717 630.793H115.392V649.653H118.717V630.793Z" fill="#47E6B1"/>
<path d="M126.489 641.881V638.556H107.629V641.881H126.489Z" fill="#47E6B1"/>
<path d="M543.345 7.55345C542.426 7.1539 541.688 6.43041 541.269 5.52095C540.85 4.61149 540.781 3.57969 541.074 2.62233C541.12 2.47424 541.149 2.32115 541.159 2.16628C541.189 1.72597 541.076 1.28774 540.836 0.917202C540.597 0.54666 540.243 0.263729 539.829 0.110758C539.415 -0.0422116 538.963 -0.0569942 538.54 0.0686247C538.117 0.194244 537.746 0.453506 537.482 0.807607C537.391 0.931206 537.314 1.06515 537.254 1.20666C536.855 2.12474 536.131 2.86364 535.222 3.28245C534.312 3.70126 533.281 3.77067 532.323 3.47744C532.175 3.43095 532.022 3.40225 531.867 3.39193C531.423 3.3599 530.981 3.47356 530.608 3.71566C530.235 3.95776 529.951 4.31506 529.8 4.73327C529.648 5.15148 529.637 5.60774 529.768 6.03272C529.9 6.45771 530.166 6.8282 530.527 7.08789C530.651 7.17931 530.785 7.25585 530.927 7.31592C531.845 7.71547 532.584 8.43896 533.002 9.34842C533.421 10.2579 533.491 11.2897 533.197 12.247C533.151 12.3951 533.122 12.5482 533.112 12.7031C533.076 13.1494 533.188 13.595 533.431 13.9713C533.673 14.3477 534.033 14.634 534.454 14.7862C534.875 14.9384 535.334 14.9481 535.761 14.8138C536.188 14.6795 536.559 14.4086 536.817 14.0428C536.909 13.9192 536.985 13.7852 537.045 13.6437C537.445 12.7256 538.168 11.9867 539.078 11.5679C539.987 11.1491 541.019 11.0797 541.976 11.3729C542.124 11.4194 542.278 11.4481 542.432 11.4584C542.873 11.4886 543.311 11.3753 543.682 11.1355C544.052 10.8958 544.335 10.5425 544.488 10.1285C544.641 9.71449 544.656 9.2621 544.53 8.83902C544.404 8.41593 544.145 8.04491 543.791 7.78148C543.653 7.68664 543.503 7.61 543.345 7.55345Z" fill="#4D8AF0"/>
<path d="M130.584 147.363C129.666 146.964 128.927 146.24 128.509 145.331C128.09 144.421 128.02 143.39 128.314 142.432C128.36 142.284 128.389 142.131 128.399 141.976C128.429 141.536 128.316 141.098 128.076 140.727C127.836 140.357 127.483 140.074 127.069 139.921C126.655 139.768 126.203 139.753 125.78 139.879C125.357 140.004 124.986 140.263 124.722 140.618C124.631 140.741 124.554 140.875 124.494 141.017C124.095 141.935 123.371 142.674 122.462 143.092C121.552 143.511 120.52 143.581 119.563 143.287C119.415 143.241 119.262 143.212 119.107 143.202C118.667 143.172 118.228 143.285 117.858 143.525C117.487 143.765 117.204 144.118 117.051 144.532C116.898 144.946 116.884 145.398 117.009 145.821C117.135 146.244 117.394 146.615 117.748 146.879C117.872 146.97 118.006 147.047 118.147 147.107C119.065 147.506 119.804 148.23 120.223 149.139C120.642 150.049 120.711 151.081 120.418 152.038C120.372 152.186 120.343 152.339 120.333 152.494C120.302 152.934 120.416 153.373 120.656 153.743C120.895 154.114 121.249 154.397 121.663 154.55C122.077 154.703 122.529 154.717 122.952 154.592C123.375 154.466 123.746 154.207 124.01 153.853C124.101 153.729 124.178 153.595 124.238 153.454C124.637 152.536 125.361 151.797 126.27 151.378C127.18 150.959 128.211 150.89 129.169 151.183C129.317 151.229 129.47 151.258 129.625 151.268C130.065 151.299 130.503 151.185 130.874 150.945C131.244 150.706 131.527 150.352 131.68 149.938C131.833 149.524 131.848 149.072 131.722 148.649C131.597 148.226 131.338 147.855 130.983 147.591C130.86 147.5 130.726 147.424 130.584 147.363Z" fill="#FDD835"/>
<path d="M717.549 724.333C716.631 723.933 715.892 723.21 715.473 722.3C715.054 721.391 714.985 720.359 715.278 719.402C715.324 719.253 715.353 719.1 715.363 718.945C715.394 718.505 715.28 718.067 715.041 717.696C714.801 717.326 714.447 717.043 714.034 716.89C713.62 716.737 713.167 716.722 712.744 716.848C712.321 716.973 711.95 717.233 711.687 717.587C711.595 717.71 711.519 717.844 711.458 717.986C711.059 718.904 710.335 719.643 709.426 720.062C708.517 720.48 707.485 720.55 706.527 720.257C706.379 720.21 706.226 720.181 706.071 720.171C705.631 720.141 705.193 720.254 704.822 720.494C704.452 720.734 704.169 721.087 704.016 721.501C703.863 721.915 703.848 722.367 703.974 722.79C704.099 723.214 704.359 723.585 704.713 723.848C704.836 723.939 704.97 724.016 705.112 724.076C706.03 724.476 706.769 725.199 707.187 726.109C707.606 727.018 707.676 728.05 707.382 729.007C707.336 729.155 707.307 729.308 707.297 729.463C707.267 729.903 707.38 730.342 707.62 730.712C707.86 731.083 708.213 731.366 708.627 731.519C709.041 731.672 709.493 731.686 709.916 731.561C710.339 731.435 710.71 731.176 710.974 730.822C711.065 730.698 711.142 730.564 711.202 730.423C711.601 729.505 712.325 728.766 713.234 728.347C714.144 727.928 715.176 727.859 716.133 728.152C716.281 728.199 716.434 728.227 716.589 728.238C717.029 728.268 717.468 728.154 717.838 727.915C718.209 727.675 718.492 727.322 718.645 726.908C718.798 726.494 718.812 726.041 718.687 725.618C718.561 725.195 718.302 724.824 717.948 724.561C717.824 724.469 717.69 724.393 717.549 724.333Z" fill="#FDD835"/>
<path d="M305.131 78.2328C308.809 78.2328 311.791 75.2508 311.791 71.5724C311.791 67.894 308.809 64.9121 305.131 64.9121C301.452 64.9121 298.47 67.894 298.47 71.5724C298.47 75.2508 301.452 78.2328 305.131 78.2328Z" fill="#F55F44"/>
<path d="M782.242 161.444C785.921 161.444 788.903 158.462 788.903 154.784C788.903 151.105 785.921 148.124 782.242 148.124C778.564 148.124 775.582 151.105 775.582 154.784C775.582 158.462 778.564 161.444 782.242 161.444Z" fill="#F55F44"/>
<path d="M744.523 360.057C748.201 360.057 751.183 357.075 751.183 353.397C751.183 349.718 748.201 346.736 744.523 346.736C740.844 346.736 737.862 349.718 737.862 353.397C737.862 357.075 740.844 360.057 744.523 360.057Z" fill="#00AEC8"/>
<path opacity="0.5" d="M6.66033 33.8432C10.3387 33.8432 13.3207 30.8613 13.3207 27.1829C13.3207 23.5045 10.3387 20.5226 6.66033 20.5226C2.98193 20.5226 0 23.5045 0 27.1829C0 30.8613 2.98193 33.8432 6.66033 33.8432Z" fill="#47E6B1"/>
</g>
<defs>
<linearGradient id="paint0_linear" x1="359.497" y1="696.257" x2="359.497" y2="123.715" gradientUnits="userSpaceOnUse">
<stop stop-color="#808080" stop-opacity="0.25"/>
<stop offset="0.54" stop-color="#808080" stop-opacity="0.12"/>
<stop offset="1" stop-color="#808080" stop-opacity="0.1"/>
</linearGradient>
<linearGradient id="paint1_linear" x1="41597.7" y1="62911.3" x2="41597.7" y2="38234.3" gradientUnits="userSpaceOnUse">
<stop stop-color="#808080" stop-opacity="0.25"/>
<stop offset="0.54" stop-color="#808080" stop-opacity="0.12"/>
<stop offset="1" stop-color="#808080" stop-opacity="0.1"/>
</linearGradient>
<linearGradient id="paint2_linear" x1="38208.9" y1="34736.8" x2="38208.9" y2="25153.7" gradientUnits="userSpaceOnUse">
<stop stop-color="#808080" stop-opacity="0.25"/>
<stop offset="0.54" stop-color="#808080" stop-opacity="0.12"/>
<stop offset="1" stop-color="#808080" stop-opacity="0.1"/>
</linearGradient>
<linearGradient id="paint3_linear" x1="41597.7" y1="94759.4" x2="41597.7" y2="70082.4" gradientUnits="userSpaceOnUse">
<stop stop-color="#808080" stop-opacity="0.25"/>
<stop offset="0.54" stop-color="#808080" stop-opacity="0.12"/>
<stop offset="1" stop-color="#808080" stop-opacity="0.1"/>
</linearGradient>
<linearGradient id="paint4_linear" x1="38208.9" y1="54657.5" x2="38208.9" y2="45074.5" gradientUnits="userSpaceOnUse">
<stop stop-color="#808080" stop-opacity="0.25"/>
<stop offset="0.54" stop-color="#808080" stop-opacity="0.12"/>
<stop offset="1" stop-color="#808080" stop-opacity="0.1"/>
</linearGradient>
<linearGradient id="paint5_linear" x1="323393" y1="397101" x2="373439" y2="145275" gradientUnits="userSpaceOnUse">
<stop stop-color="#808080" stop-opacity="0.25"/>
<stop offset="0.54" stop-color="#808080" stop-opacity="0.12"/>
<stop offset="1" stop-color="#808080" stop-opacity="0.1"/>
</linearGradient>
<linearGradient id="paint6_linear" x1="73113.1" y1="167193" x2="81253.7" y2="126230" gradientUnits="userSpaceOnUse">
<stop stop-color="#808080" stop-opacity="0.25"/>
<stop offset="0.54" stop-color="#808080" stop-opacity="0.12"/>
<stop offset="1" stop-color="#808080" stop-opacity="0.1"/>
</linearGradient>
<linearGradient id="paint7_linear" x1="600.095" y1="671.734" x2="600.095" y2="287.097" gradientUnits="userSpaceOnUse">
<stop stop-color="#B3B3B3" stop-opacity="0.25"/>
<stop offset="0.54" stop-color="#B3B3B3" stop-opacity="0.1"/>
<stop offset="1" stop-color="#B3B3B3" stop-opacity="0.05"/>
</linearGradient>
<linearGradient id="paint8_linear" x1="481.226" y1="424.266" x2="481.226" y2="405.758" gradientUnits="userSpaceOnUse">
<stop stop-opacity="0.12"/>
<stop offset="0.55" stop-opacity="0.09"/>
<stop offset="1" stop-opacity="0.02"/>
</linearGradient>
<linearGradient id="paint9_linear" x1="124219" y1="27786.6" x2="124219" y2="24413.8" gradientUnits="userSpaceOnUse">
<stop stop-opacity="0.12"/>
<stop offset="0.55" stop-opacity="0.09"/>
<stop offset="1" stop-opacity="0.02"/>
</linearGradient>
<clipPath id="clip0">
<rect width="800" height="740.067" fill="white"/>
</clipPath>
</defs>
</svg>
