<svg width="155" height="209" viewBox="0 0 155 209" fill="none" xmlns="http://www.w3.org/2000/svg">
<path d="M0.843262 104.5C0.843262 98.2213 0.752365 92.0864 0.664124 86.1304C0.549103 78.3674 0.438599 70.9083 0.539719 63.831C0.718185 51.3386 1.5573 40.1328 4.18214 30.7419C6.80434 21.3606 11.1998 13.8217 18.4737 8.6188C25.7534 3.4117 35.978 0.5 50.3433 0.5C107.781 0.5 154.343 47.0624 154.343 104.5C154.343 161.938 107.781 208.5 50.3433 208.5C35.978 208.5 25.7534 205.588 18.4737 200.381C11.1998 195.178 6.80434 187.639 4.18214 178.258C1.5573 168.867 0.718185 157.661 0.539719 145.169C0.438599 138.092 0.549103 130.633 0.664124 122.87C0.752365 116.914 0.843262 110.779 0.843262 104.5Z" fill="#F5F7FB" stroke="#DEDEDE"/>
</svg>
