<?xml version="1.0"?>
<svg xmlns="http://www.w3.org/2000/svg" id="Layer_1_1_" enable-background="new 0 0 64 64" height="512px" viewBox="0 0 64 64" width="512px" class=""><g><path d="m61 2h-10.262c-10.416 0-20.208 4.056-27.573 11.421-3.135 3.135-5.68 6.748-7.59 10.739l-1.867-1.867c-.188-.188-.443-.293-.708-.293h-10c-.404 0-.769.244-.924.617-.155.374-.069.804.217 1.09l9.26 9.26-3.463 7.619c-.173.379-.092.826.203 1.121l3.324 3.324c-.204-.015-.409-.031-.617-.031-4.411 0-8 3.589-8 8 0 1.854-.977 7.777-.987 7.837-.052.318.051.642.279.87.189.189.445.293.708.293.054 0 .108-.004.162-.013.06-.01 6.033-.987 7.838-.987 4.411 0 8-3.589 8-8 0-.208-.016-.413-.031-.617l3.324 3.324c.191.192.447.293.707.293.14 0 .281-.029.413-.09l7.619-3.463 9.26 9.26c.192.191.448.293.708.293.129 0 .259-.025.383-.076.373-.155.617-.52.617-.924v-10c0-.265-.105-.52-.293-.707l-1.868-1.868c3.992-1.91 7.604-4.455 10.739-7.59 7.366-7.365 11.422-17.157 11.422-27.573v-10.262c0-.552-.448-1-1-1zm-45.854 50.004c-.923 1.569-3.29 2.409-4.953 2.781.532-2.717 2.53-4.872 5.169-5.619.327 1.104.255 2.038-.216 2.838zm-4.146 6.996c-1.409 0-4.86.499-6.796.797.298-1.926.796-5.354.796-6.797 0-3.309 2.691-6 6-6 .966 0 1.876.235 2.685.642-2.939 1.257-5.067 3.959-5.535 7.239l-.14.979c-.043.304.055.611.268.833.19.197.451.307.722.307.033 0 .066-.001.1-.005.235-.023 5.786-.615 7.767-3.972.046-.079.08-.161.122-.241.003.073.011.144.011.218 0 3.309-2.691 6-6 6zm12.217-5.197-13.02-13.02 2.866-6.306 16.46 16.46zm36.783-40.541c0 9.881-3.848 19.172-10.835 26.159-3.14 3.14-6.782 5.665-10.823 7.506l-15.635-15.634-1.414 1.414 18.707 18.707v7.172l-34.586-34.586h7.172l6.707 6.707 1.414-1.414-3.635-3.635c1.841-4.041 4.366-7.682 7.506-10.823 6.988-6.987 16.278-10.835 26.16-10.835h9.262z" data-original="#000000" class="active-path" data-old_color="#000000" fill="#493548"/><path d="m38.545 9.309.91 1.781c1.415-.723 2.944-1.09 4.545-1.09 5.514 0 10 4.486 10 10s-4.486 10-10 10-10-4.486-10-10c0-2.781 1.114-5.364 3.137-7.273l-1.373-1.454c-2.427 2.291-3.764 5.39-3.764 8.727 0 6.617 5.383 12 12 12s12-5.383 12-12-5.383-12-12-12c-1.894 0-3.78.453-5.455 1.309z" data-original="#000000" class="active-path" data-old_color="#000000" fill="#493548"/><path d="m42.285 14.249-.57-1.917c-3.365 1.001-5.715 4.154-5.715 7.668 0 4.411 3.589 8 8 8s8-3.589 8-8-3.589-8-8-8v2c3.309 0 6 2.691 6 6s-2.691 6-6 6-6-2.691-6-6c0-2.636 1.762-5.001 4.285-5.751z" data-original="#000000" class="active-path" data-old_color="#000000" fill="#493548"/></g> </svg>
