<?xml version="1.0"?>
<svg xmlns="http://www.w3.org/2000/svg" id="Layer_1" data-name="Layer 1" viewBox="0 0 128 128" width="512px" height="512px"><g><title class="active-path" style="">ANALYSIS REPORT</title><path d="M22.914,71.667a1.25,1.25,0,0,0,1.25-1.25V24.164h80.922a1.25,1.25,0,0,0,0-2.5H22.914a1.25,1.25,0,0,0-1.25,1.25v47.5A1.25,1.25,0,0,0,22.914,71.667Z" data-original="#000000" class="active-path" fill="#393E41"/><path d="M21.664,99a1.25,1.25,0,1,0,2.5,0V78.779l9.859-14.706a3.1,3.1,0,0,1,5.437.544l7.41,17.969a5.519,5.519,0,0,0,5.155,3.465c.121,0,.242,0,.364-.012a5.528,5.528,0,0,0,5.053-4.107L63.92,58.321a1.25,1.25,0,1,0-2.41-.662L55.033,81.272a3.1,3.1,0,0,1-5.852.361l-7.41-17.969a5.6,5.6,0,0,0-9.824-.983L21.293,78.572a3.1,3.1,0,0,1-2.573,1.373H11a1.25,1.25,0,0,0,0,2.5H18.72a5.581,5.581,0,0,0,2.944-.848Z" data-original="#000000" class="active-path" fill="#393E41"/><path d="M105.086,69.125a1.25,1.25,0,0,0-1.25,1.25v33.461H22.914a1.25,1.25,0,0,0,0,2.5h82.172a1.25,1.25,0,0,0,1.25-1.25V70.375A1.25,1.25,0,0,0,105.086,69.125Z" data-original="#000000" class="active-path" fill="#393E41"/><path d="M62.62,53.611a1.25,1.25,0,0,0,2.412.66l.276-1.01A1.25,1.25,0,1,0,62.9,52.6Z" data-original="#000000" class="active-path" fill="#393E41"/><path d="M117,63.818h-8.643a3.09,3.09,0,0,1-2.02-.778V28a1.25,1.25,0,1,0-2.5,0V59.063l-2.792-4.874a5.6,5.6,0,0,0-10.053.7L86.259,66.666a3.1,3.1,0,0,1-5.838-.25L74.836,48.121a5.483,5.483,0,0,0-5.346-3.963H69.4a5.486,5.486,0,0,0-5.318,4.115,1.25,1.25,0,1,0,2.41.662,3.1,3.1,0,0,1,5.951-.085L78.03,67.147A5.536,5.536,0,0,0,83.145,71.1c.084,0,.168.006.251.006A5.531,5.531,0,0,0,88.579,67.6l4.732-11.781a3.1,3.1,0,0,1,5.563-.386L103.5,63.5a5.556,5.556,0,0,0,.7.947l.006.006a5.605,5.605,0,0,0,4.152,1.862H117a1.25,1.25,0,0,0,0-2.5Z" data-original="#000000" class="active-path" fill="#393E41"/></g> </svg>
