<svg width="305" height="147" viewBox="0 0 305 147" fill="none" xmlns="http://www.w3.org/2000/svg">
<path d="M304 56.5C304 61.5227 301.713 66.7046 297.519 71.9473C293.326 77.188 287.258 82.4517 279.774 87.6259C264.807 97.9735 244.251 107.913 221.934 116.567C177.288 133.88 125.73 146 98 146C70.2586 146 45.9902 138.999 28.6721 126.873C11.3629 114.754 1 97.5216 1 77C1 56.56 17.2682 37.5658 40.6412 23.6466C63.9872 9.74336 94.2743 1 122 1C149.789 1 195.376 4.64193 234.003 13.4545C253.321 17.8616 270.862 23.5542 283.563 30.711C296.289 37.8817 304 46.4302 304 56.5Z" fill="#F5F7FB" stroke="#DEDEDE"/>
</svg>
