<svg width="253" height="196" viewBox="0 0 253 196" fill="none" xmlns="http://www.w3.org/2000/svg">
<path d="M1 75C1 64.8469 6.89168 55.1059 16.7239 46.1768C26.5497 37.2534 40.25 29.1989 55.7142 22.425C86.6451 8.87602 124.516 0.5 152.257 0.5C179.979 0.5 205.058 8.86607 223.194 22.3681C241.331 35.87 252.5 54.4836 252.5 75C252.5 85.2487 248.793 97.8789 242.328 111.083C235.868 124.279 226.672 138.01 215.739 150.453C193.851 175.364 165.102 195 137.5 195C123.701 195 108.265 190.094 92.8523 182.053C77.4451 174.016 62.0939 162.864 48.4727 150.414C34.8511 137.964 22.9723 124.228 14.5028 111.033C6.02415 97.8227 1 85.2123 1 75Z" fill="#F5F7FB" stroke="#DEDEDE"/>
</svg>
