<svg width="222" height="162" viewBox="0 0 222 162" fill="none" xmlns="http://www.w3.org/2000/svg">
<g clip-path="url(#clip0)">
<g opacity="0.1">
<path opacity="0.1" d="M13.4677 24.2231C15.5375 27.8251 14.391 32.5004 12.1426 35.9928C9.89417 39.4851 6.69607 42.2571 4.20415 45.5891C-0.749251 52.2369 -2.02971 62.7342 4.21632 68.197C5.56172 69.374 7.2257 70.3054 8.04552 71.8923C9.17784 74.0818 8.33976 76.7198 7.48545 79.0393L7.41442 79.23C4.18589 87.9822 8.94245 97.682 17.8569 100.428C22.7901 101.947 27.2422 104.411 30.5377 108.394C33.4172 111.877 35.0812 116.173 36.9806 120.272C40.4141 127.676 44.846 134.756 50.9703 140.148C57.0945 145.54 65.0857 149.113 73.2433 148.819C91.8759 148.147 105.596 128.527 124.21 127.494C125.551 127.419 126.98 127.469 128.102 128.208C129.685 129.251 130.17 131.299 130.835 133.078C134.36 142.5 144.973 146.843 154.476 150.142L172.334 156.348C182.033 159.716 192.22 163.135 202.367 161.575C212.513 160.014 222.42 151.682 221.979 141.423C221.618 132.995 214.633 125.578 215.549 117.191C216.182 111.396 220.522 106.528 221.249 100.742C222.006 94.7213 218.714 88.94 214.926 84.1997C204.024 70.555 188.489 61.5613 173.326 52.8863C162.646 46.7742 151.911 40.6377 140.414 36.2464C112.069 25.4488 80.9159 25.9135 50.7207 22.967C45.5278 22.4597 40.0996 21.8631 35.341 19.568C31.6883 17.8066 28.8332 13.7339 24.8254 12.8715C21.7714 12.214 17.2543 13.5716 14.5878 15.055C9.72777 17.7782 11.0671 20.0449 13.4677 24.2231Z" fill="#F55F44"/>
</g>
<path d="M200.463 0H37.3744C36.6278 0.00318931 35.889 0.153519 35.2005 0.442394C34.512 0.731269 33.8871 1.15302 33.3617 1.68354C32.8362 2.21407 32.4205 2.84295 32.1383 3.53424C31.8561 4.22553 31.7129 4.96567 31.7169 5.71234V120.406C31.7129 121.152 31.8561 121.892 32.1383 122.584C32.4205 123.275 32.8362 123.904 33.3617 124.434C33.8871 124.965 34.512 125.387 35.2005 125.675C35.889 125.964 36.6278 126.115 37.3744 126.118H200.463C201.21 126.115 201.949 125.964 202.637 125.675C203.326 125.387 203.951 124.965 204.476 124.434C205.001 123.904 205.417 123.275 205.699 122.584C205.982 121.892 206.125 121.152 206.121 120.406V5.71234C206.125 4.96567 205.982 4.22553 205.699 3.53424C205.417 2.84295 205.001 2.21407 204.476 1.68354C203.951 1.15302 203.326 0.731269 202.637 0.442394C201.949 0.153519 201.21 0.00318931 200.463 0Z" fill="url(#paint0_linear)"/>
<path d="M205.384 12.1511V119.038C205.384 120.525 204.793 121.952 203.742 123.004C202.69 124.056 201.263 124.647 199.775 124.647H38.1274C36.6398 124.647 35.2132 124.056 34.1613 123.004C33.1095 121.952 32.5186 120.525 32.5186 119.038V12.1511H205.384Z" fill="#F6F7F9"/>
<path d="M74.7452 67.2433V124.645H38.1274C35.0308 124.645 32.5186 122.084 32.5186 118.926V67.2433H74.7452Z" fill="#DDE1EC"/>
<path d="M157.661 25.2378H87.2822V27.2163H157.661V25.2378Z" fill="#DDE1EC"/>
<path d="M129.728 39.3126H87.2822V41.2911H129.728V39.3126Z" fill="#DDE1EC"/>
<path d="M153.482 39.3126H139.186V41.2911H153.482V39.3126Z" fill="#DDE1EC"/>
<g opacity="0.1">
<path opacity="0.1" d="M59.7892 88.6863H45.4932V90.6648H59.7892V88.6863Z" fill="#F55F44"/>
</g>
<path d="M153.482 57.7869H139.186V59.7654H153.482V57.7869Z" fill="#DDE1EC"/>
<path d="M153.482 76.2612H139.186V78.2398H153.482V76.2612Z" fill="#DDE1EC"/>
<path d="M153.482 45.4714H139.186V47.45H153.482V45.4714Z" fill="#DDE1EC"/>
<path d="M178.113 45.4714H163.817V47.45H178.113V45.4714Z" fill="#DDE1EC"/>
<path d="M153.482 51.6282H139.186V53.6067H153.482V51.6282Z" fill="#DDE1EC"/>
<path d="M178.113 51.6282H163.817V53.6067H178.113V51.6282Z" fill="#DDE1EC"/>
<path d="M178.113 63.0651H163.817V65.0436H178.113V63.0651Z" fill="#DDE1EC"/>
<path d="M178.113 69.2239H163.817V71.2024H178.113V69.2239Z" fill="#DDE1EC"/>
<path d="M178.113 82.4199H163.817V84.3985H178.113V82.4199Z" fill="#DDE1EC"/>
<path d="M129.728 45.4714H87.2822V47.45H129.728V45.4714Z" fill="#DDE1EC"/>
<path d="M129.728 51.6282H87.2822V53.6067H129.728V51.6282Z" fill="#DDE1EC"/>
<path d="M129.728 57.7869H87.2822V59.7654H129.728V57.7869Z" fill="#DDE1EC"/>
<path d="M129.728 63.9457H87.2822V65.9242H129.728V63.9457Z" fill="#DDE1EC"/>
<path d="M129.728 70.1024H87.2822V72.081H129.728V70.1024Z" fill="#DDE1EC"/>
<path d="M129.728 76.2612H87.2822V78.2398H129.728V76.2612Z" fill="#DDE1EC"/>
<path d="M129.728 82.4199H87.2822V84.3985H129.728V82.4199Z" fill="#DDE1EC"/>
<path d="M74.7452 12.0416H32.5186V68.3432H74.7452V12.0416Z" fill="#F55F44"/>
<path d="M205.384 6.43274C205.384 4.94554 204.793 3.51943 203.741 2.468C202.689 1.41658 201.263 0.825928 199.775 0.825928H38.1274C36.6398 0.825928 35.2132 1.41686 34.1613 2.46872C33.1095 3.52058 32.5186 4.94722 32.5186 6.43477V12.8127H205.384V6.43274Z" fill="#E8EAF1"/>
<path d="M39.3374 8.96326C40.5523 8.96326 41.5371 7.97842 41.5371 6.76355C41.5371 5.54869 40.5523 4.56384 39.3374 4.56384C38.1225 4.56384 37.1377 5.54869 37.1377 6.76355C37.1377 7.97842 38.1225 8.96326 39.3374 8.96326Z" fill="#FF5252"/>
<path d="M46.5942 8.96326C47.8091 8.96326 48.794 7.97842 48.794 6.76355C48.794 5.54869 47.8091 4.56384 46.5942 4.56384C45.3794 4.56384 44.3945 5.54869 44.3945 6.76355C44.3945 7.97842 45.3794 8.96326 46.5942 8.96326Z" fill="#FFFF00"/>
<path d="M53.8521 8.96326C55.0669 8.96326 56.0518 7.97842 56.0518 6.76355C56.0518 5.54869 55.0669 4.56384 53.8521 4.56384C52.6372 4.56384 51.6523 5.54869 51.6523 6.76355C51.6523 7.97842 52.6372 8.96326 53.8521 8.96326Z" fill="#69F0AE"/>
<path d="M65.9504 40.1933C65.9542 43.014 64.9852 45.7496 63.2068 47.939C63.1399 48.0222 63.0729 48.1034 63.0039 48.1845C62.9905 48.1983 62.9782 48.2133 62.9674 48.2292C62.3373 48.9583 61.6243 49.6115 60.8427 50.1752L60.7413 50.2503C60.6013 50.3497 60.4592 50.4532 60.3151 50.5385L60.2157 50.6014L60.0026 50.7333C59.9711 50.7532 59.9386 50.7715 59.9052 50.7881C59.8788 50.807 59.851 50.824 59.822 50.8388C59.5095 51.0214 59.1869 51.1898 58.8561 51.3441C58.8196 51.3644 58.779 51.3806 58.7404 51.3989C58.7019 51.4171 58.6572 51.4394 58.6126 51.4557C58.568 51.4719 58.4807 51.5145 58.4097 51.5409C57.701 51.8409 56.965 52.072 56.212 52.2309C55.4943 52.3845 54.7642 52.4735 54.0306 52.4967H53.9189H53.6288C52.6606 52.5 51.6954 52.389 50.7533 52.1659L50.5768 52.1233C50.1628 52.0151 49.757 51.8893 49.3592 51.7459C49.1177 51.6566 48.8783 51.5592 48.6449 51.4557C48.5861 51.4293 48.5293 51.4049 48.4704 51.3765L48.2939 51.2974L48.1396 51.2183L47.9773 51.1351L47.7967 51.0397L47.5938 50.924L47.5613 50.9058C46.6963 50.4149 45.8937 49.8214 45.1709 49.1383C45.11 49.0794 45.0471 49.0226 44.9882 48.9597C44.9294 48.8968 44.8604 48.8339 44.7995 48.769C43.3938 47.3213 42.3653 45.5505 41.8045 43.6122C41.2437 41.6739 41.1678 39.6275 41.5834 37.6529C41.999 35.6783 42.8934 33.8362 44.1879 32.2883C45.4824 30.7405 47.1375 29.5345 49.0074 28.7763C50.8774 28.0182 52.905 27.7311 54.9119 27.9403C56.9189 28.1495 58.8436 28.8487 60.517 29.9763C62.1903 31.1039 63.561 32.6254 64.5084 34.4069C65.4558 36.1885 65.951 38.1755 65.9504 40.1933Z" fill="white"/>
<path d="M60.5615 45.1265V45.1428L60.5757 45.157C60.5716 45.1448 60.5655 45.1367 60.5615 45.1265ZM48.1506 51.2143C48.1303 50.9302 48.11 50.6745 48.0918 50.4553C48.0775 50.3011 48.0633 50.1631 48.0512 50.0495C48.05 50.0441 48.05 50.0386 48.0512 50.0332C48.0512 50.0048 48.0512 49.9785 48.0512 49.9521C47.8556 50.2506 47.6949 50.5707 47.5723 50.9058L47.6047 50.9241L47.8077 51.0398L47.9883 51.1351L48.1506 51.2183C48.1506 51.309 48.1574 51.4037 48.1709 51.5024C48.1608 51.405 48.1567 51.3117 48.1506 51.2204V51.2143ZM50.8515 39.613L50.8617 39.6313C50.8624 39.636 50.8624 39.6408 50.8617 39.6455C50.8599 39.6362 50.8565 39.6272 50.8515 39.6191V39.613Z" fill="url(#paint1_linear)"/>
<path d="M54.384 37.5411C54.384 37.5411 53.6515 40.8326 55.6645 42.5717C57.6775 44.3107 50.91 45.6723 49.7168 44.2174C48.5236 42.7624 50.5447 42.0197 50.5447 42.0197C50.5447 42.0197 51.5593 41.1958 50.5447 38.7283L54.384 37.5411Z" fill="#E0A17E"/>
<path d="M56.2099 52.2349C55.4922 52.3886 54.7621 52.4775 54.0285 52.5007H53.9169H53.6267C52.659 52.5026 51.6946 52.3902 50.7533 52.1659L50.5767 52.1233C50.1628 52.0151 49.7569 51.8893 49.3592 51.7459L49.1562 48.702L50.0369 44.4872L50.5544 42.0034L50.7005 41.3094L50.8486 41.5123L50.8811 41.557L50.9217 41.6097L52.5451 43.7709L54.207 41.9811L54.2923 41.8877L54.7489 41.3946L54.9213 41.21L55.0025 41.837L55.2947 44.0915L55.8365 48.2495L56.2099 52.2349Z" fill="#F0F1F5"/>
<path opacity="0.1" d="M60.7395 50.2503C60.5994 50.3497 60.4574 50.4532 60.3133 50.5384L60.2139 50.6013L60.0008 50.7332C59.9693 50.7532 59.9368 50.7714 59.9034 50.788C59.877 50.807 59.8492 50.8239 59.8202 50.8388C59.3731 50.4574 59.0373 49.9625 58.8482 49.4061C58.8243 49.3355 58.804 49.2637 58.7873 49.191C58.7863 49.1795 58.7863 49.168 58.7873 49.1565L58.6717 49.4609L58.3165 50.3396C58.3165 50.3396 58.4221 50.7698 58.6108 51.4516C58.5445 51.4827 58.4768 51.5111 58.4079 51.5368C57.6991 51.8368 56.9632 52.0679 56.2102 52.2268C55.4924 52.3804 54.7624 52.4694 54.0287 52.4926H53.9171C53.8145 51.5493 53.7786 50.6 53.8096 49.6516L54.0774 44.544L54.2134 41.9669L54.2885 40.5464C54.2885 40.5464 54.3149 40.5748 54.3656 40.6215C54.4163 40.6681 54.4508 40.7026 54.5117 40.7574C55.4174 41.5488 56.5583 42.0201 57.7585 42.0988C58.09 42.1083 58.4147 42.1942 58.7076 42.3498C59.0004 42.5053 59.2534 42.7264 59.4468 42.9957C59.8136 43.5172 60.0495 44.1192 60.1347 44.751L60.1956 45.309L60.2119 45.4673L60.2342 45.6702L60.7395 50.2503Z" fill="black"/>
<path d="M60.8405 50.1772L60.7391 50.2523C60.5991 50.3517 60.457 50.4552 60.3129 50.5405L60.2135 50.6034L60.0004 50.7353C59.5233 50.3516 59.1598 49.8451 58.9493 49.2702C58.9395 49.2464 58.9314 49.222 58.9249 49.1971C58.9026 49.1261 58.8823 49.051 58.8661 48.9779L58.7829 49.1951L58.6692 49.4893L58.4095 50.1671C58.4095 50.1671 58.5292 50.6541 58.7403 51.4049C58.6977 51.4252 58.6571 51.4455 58.6124 51.4617C58.5678 51.478 58.4805 51.5206 58.4095 51.547C57.7008 51.847 56.9648 52.078 56.2118 52.2369C55.4941 52.3906 54.764 52.4795 54.0304 52.5028C53.912 51.4982 53.8692 50.4861 53.9025 49.4751L54.1623 44.5258L54.3003 41.8878L54.3672 40.6438L54.3794 40.3861C54.3902 40.3983 54.4017 40.4098 54.4139 40.4206C55.3487 41.318 56.5705 41.8563 57.8636 41.9405C58.1904 41.9499 58.5108 42.0335 58.8005 42.1851C59.0902 42.3366 59.3416 42.5521 59.5357 42.8151C59.9127 43.3412 60.1551 43.9515 60.2419 44.5927L60.3495 45.5932V45.6074L60.3718 45.8103L60.8405 50.1772Z" fill="#293158"/>
<path opacity="0.1" d="M50.9752 41.005V41.1288L50.9427 41.5996L50.8291 43.2108C50.8291 43.2108 50.7621 43.6755 50.7134 44.7226C50.6424 46.1025 50.5998 48.493 50.7642 52.17L50.5876 52.1274C50.1737 52.0191 49.7678 51.8933 49.3701 51.7499C49.1286 51.6606 48.8891 51.5632 48.6558 51.4597C48.5969 51.4334 48.5401 51.409 48.4813 51.3806C48.4224 50.5689 48.3514 50.0717 48.3514 50.0717C48.3514 50.0717 48.2966 50.1407 48.2134 50.2747C48.1789 50.3294 48.1363 50.3964 48.0916 50.4776L48.0815 50.4958C48.0423 50.5635 48.0003 50.6406 47.9557 50.7272C47.905 50.8286 47.8542 50.9301 47.8055 51.058L47.6026 50.9423L47.5701 50.924C46.7051 50.4331 45.9025 49.8397 45.1797 49.1565C45.5064 48.0059 45.7885 46.8493 45.8899 46.7011C46.2683 46.1199 46.5589 45.486 46.7524 44.82C46.8875 44.3676 47.1215 43.9509 47.4373 43.6C47.7531 43.2491 48.143 42.9726 48.5787 42.7907C49.4891 42.3641 50.3031 41.7565 50.9711 41.005H50.9752Z" fill="black"/>
<path d="M50.976 40.9482C50.1906 41.6133 49.3155 42.1646 48.3765 42.5858C47.9408 42.7677 47.551 43.0441 47.2352 43.3951C46.9193 43.746 46.6854 44.1627 46.5502 44.6151C46.3568 45.2811 46.0662 45.915 45.6878 46.4962C45.5883 46.6443 45.3042 47.8031 44.9775 48.9557C45.0364 49.0165 45.0993 49.0754 45.1602 49.1342C45.883 49.8174 46.6856 50.4108 47.5506 50.9017L47.5831 50.92C47.7015 50.6184 47.8511 50.33 48.0295 50.0596L48.0397 50.0433C48.1107 49.9378 48.1554 49.881 48.1554 49.881C48.1554 49.881 48.1736 50.0149 48.2 50.2564C48.2264 50.4979 48.2609 50.8652 48.2933 51.2913L48.4699 51.3705C48.5267 51.3989 48.5835 51.4232 48.6444 51.4496C48.8778 51.5531 49.1172 51.6525 49.3587 51.7398C49.7524 51.8846 50.1582 52.0104 50.5762 52.1172C50.4098 48.4768 50.4464 46.0782 50.5133 44.6638C50.5661 43.5234 50.6371 43.0181 50.6371 43.0181L50.8948 41.5367L50.9679 41.1187L51.0024 40.9158L50.976 40.9482Z" fill="#293158"/>
<path opacity="0.1" d="M52.282 40.7432C51.8257 40.7437 51.3753 40.6403 50.965 40.4408C50.8941 39.915 50.7528 39.401 50.5449 38.9128L54.3843 37.7257C54.2443 38.4614 54.2176 39.2141 54.3051 39.9579C53.752 40.4623 53.0306 40.7424 52.282 40.7432Z" fill="black"/>
<path d="M52.2821 40.5606C53.9487 40.5606 55.2996 39.2096 55.2996 37.5431C55.2996 35.8766 53.9487 34.5256 52.2821 34.5256C50.6156 34.5256 49.2646 35.8766 49.2646 37.5431C49.2646 39.2096 50.6156 40.5606 52.2821 40.5606Z" fill="#E0A17E"/>
<g opacity="0.1">
<path opacity="0.1" d="M58.4142 51.545C58.1768 50.711 58.0449 50.1631 58.0449 50.1631L58.5015 48.974C58.5372 49.1411 58.5896 49.3043 58.6577 49.461L58.6679 49.4874L58.4081 50.1652C58.4081 50.1652 58.5279 50.6522 58.7389 51.403C58.6963 51.4233 58.6557 51.4436 58.6111 51.4598C58.5664 51.476 58.4792 51.5187 58.4142 51.545Z" fill="black"/>
</g>
<path d="M61.9751 45.8631C61.9751 45.8631 61.7011 43.2108 61.9751 41.9304C62.249 40.6499 58.775 42.113 59.5055 43.8501C59.8964 44.813 60.3867 45.7325 60.9686 46.5936L61.9751 45.8631Z" fill="#E0A17E"/>
<path opacity="0.1" d="M62.9653 48.2292C62.3351 48.9583 61.6221 49.6114 60.8406 50.1752L60.7392 50.2503C60.5991 50.3497 60.4571 50.4532 60.313 50.5385C59.9859 50.1505 59.6939 49.7342 59.4404 49.2945L59.4141 49.2479L60.1466 45.4065L60.2237 45.4856C60.2562 45.5161 60.2988 45.5567 60.3495 45.5972H60.3597C60.7392 45.9219 61.5407 46.4089 61.9263 45.2766C61.9914 45.0784 62.0383 44.8746 62.0663 44.6678L62.1414 44.9479L62.186 45.1123L62.9977 48.1744L62.9653 48.2292Z" fill="black"/>
<path d="M62.9652 48.2291C62.3352 48.9583 61.6222 49.6114 60.8406 50.1752L60.7392 50.2503C60.5991 50.3497 60.4571 50.4532 60.313 50.5384L60.2136 50.6013C59.9161 50.2324 59.6487 49.8402 59.4141 49.4284L59.4404 49.2925L60.1466 45.587C60.1466 45.587 60.1831 45.6297 60.2461 45.6885L60.3719 45.8001C60.4246 45.8448 60.4855 45.8935 60.5525 45.9381C60.9725 46.2263 61.6117 46.4434 61.9364 45.4308C61.9962 45.2428 62.0397 45.05 62.0663 44.8545L62.1596 45.1995L62.9652 48.2291Z" fill="#293158"/>
<path opacity="0.02" d="M62.9652 48.2291C62.3352 48.9583 61.6222 49.6114 60.8406 50.1752L60.7392 50.2503C60.5991 50.3497 60.4571 50.4532 60.313 50.5384L60.2136 50.6013C59.9161 50.2324 59.6487 49.8402 59.4141 49.4284L59.4404 49.2925L60.1466 45.587C60.1466 45.587 60.1831 45.6297 60.2461 45.6885L60.3719 45.8001C60.4246 45.8448 60.4855 45.8935 60.5525 45.9381C60.9725 46.2263 61.6117 46.4434 61.9364 45.4308C61.9962 45.2428 62.0397 45.05 62.0663 44.8545L62.1596 45.1995L62.9652 48.2291Z" fill="black"/>
<path opacity="0.1" d="M48.0502 50.0515L48.04 50.0677C48.04 50.0576 48.04 50.0454 48.04 50.0373C48.1679 49.5929 48.2836 49.2925 48.387 49.2032C48.387 49.2032 48.523 50.1063 48.6448 51.4598C48.5859 51.4334 48.5291 51.409 48.4702 51.3806L48.2937 51.3015C48.2633 50.8652 48.2308 50.5101 48.2004 50.2666C48.1699 50.0231 48.1557 49.8912 48.1557 49.8912C48.1557 49.8912 48.1212 49.9459 48.0502 50.0515Z" fill="black"/>
<path opacity="0.1" d="M52.3182 36.7112C52.476 36.6247 52.6577 36.5919 52.8357 36.6179C52.9126 36.6503 52.9818 36.6988 53.0386 36.7599C53.276 36.9852 53.5114 37.2469 53.8321 37.3159C54.0301 37.346 54.2321 37.3371 54.4266 37.2896C54.768 37.2501 55.0994 37.149 55.4047 36.9913C56.0845 36.5854 56.3017 35.7067 56.3443 34.9174C56.3585 34.6515 56.3037 34.3086 56.0419 34.2518C55.7091 34.1807 55.4656 34.686 55.1288 34.6312C55.0264 34.6064 54.9342 34.5504 54.8649 34.4709C54.6356 34.2416 54.4794 33.9474 54.2562 33.7161C53.8993 33.3825 53.437 33.1844 52.9493 33.156C52.4657 33.1297 51.9808 33.1756 51.5106 33.2919C51.2513 33.3347 51.001 33.4205 50.7699 33.5456C50.6555 33.6082 50.5562 33.6952 50.479 33.8004C50.4019 33.9055 50.3488 34.0264 50.3235 34.1544C50.3012 34.3309 50.3478 34.5135 50.3133 34.6881C50.2792 34.8059 50.2213 34.9156 50.1431 35.0102C50.0649 35.1048 49.9682 35.1823 49.8588 35.238C49.6559 35.3638 49.4164 35.4409 49.2176 35.5951C48.9015 35.8407 48.6823 36.19 48.5986 36.5813C48.5175 36.9706 48.5065 37.3713 48.5662 37.7644C48.6494 38.4474 48.8398 39.1131 49.1303 39.7368C49.2263 39.9546 49.3497 40.1591 49.4976 40.3456C49.7146 40.5824 49.9639 40.7873 50.2383 40.9544C50.2879 40.9995 50.3471 41.0329 50.4113 41.0522C50.4756 41.0715 50.5433 41.0762 50.6096 41.066C50.6476 41.0523 50.6827 41.0317 50.7131 41.0051C50.9729 40.788 50.9972 40.3963 50.916 40.0656C50.8349 39.7348 50.6969 39.4203 50.6806 39.0834C50.6703 38.9889 50.6887 38.8934 50.7334 38.8095C50.7875 38.7416 50.8487 38.6797 50.916 38.6248C51.0039 38.5237 51.0727 38.4075 51.119 38.2819C51.2742 37.9714 51.3803 37.6387 51.4335 37.2956C51.4629 37.0132 51.401 36.7287 51.2569 36.4839C51.3963 36.615 51.5689 36.7054 51.7559 36.7455C51.943 36.7855 52.1374 36.7737 52.3182 36.7112Z" fill="black"/>
<path d="M52.3182 36.6056C52.476 36.5191 52.6577 36.4863 52.8357 36.5123C52.9126 36.5448 52.9818 36.5932 53.0386 36.6543C53.276 36.8796 53.5114 37.1414 53.8321 37.2103C54.0301 37.2404 54.2321 37.2315 54.4266 37.184C54.768 37.1445 55.0994 37.0434 55.4047 36.8857C56.0845 36.4798 56.3017 35.6012 56.3443 34.8118C56.3585 34.5459 56.3037 34.203 56.0419 34.1462C55.7091 34.0752 55.4656 34.5804 55.1288 34.5257C55.0264 34.5008 54.9342 34.4448 54.8649 34.3653C54.6356 34.136 54.4794 33.8418 54.2562 33.6105C53.8993 33.2769 53.437 33.0788 52.9493 33.0504C52.4657 33.0241 51.9808 33.07 51.5106 33.1863C51.2513 33.2291 51.001 33.3149 50.7699 33.44C50.6555 33.5026 50.5562 33.5896 50.479 33.6948C50.4019 33.8 50.3488 33.9208 50.3235 34.0488C50.3012 34.2253 50.3478 34.408 50.3133 34.5825C50.2792 34.7004 50.2213 34.81 50.1431 34.9046C50.0649 34.9992 49.9682 35.0767 49.8588 35.1324C49.6559 35.2582 49.4164 35.3353 49.2176 35.4895C48.9015 35.7351 48.6823 36.0844 48.5986 36.4758C48.5175 36.865 48.5065 37.2657 48.5662 37.6588C48.6494 38.3418 48.8398 39.0075 49.1303 39.6312C49.2263 39.849 49.3497 40.0536 49.4976 40.24C49.7146 40.4768 49.9639 40.6817 50.2383 40.8488C50.2879 40.8939 50.3471 40.9273 50.4113 40.9466C50.4756 40.9659 50.5433 40.9706 50.6096 40.9604C50.6476 40.9468 50.6827 40.9261 50.7131 40.8995C50.9729 40.6824 50.9972 40.2907 50.916 39.96C50.8349 39.6292 50.6969 39.3147 50.6806 38.9778C50.6703 38.8833 50.6887 38.7878 50.7334 38.7039C50.7875 38.636 50.8487 38.5741 50.916 38.5192C51.0039 38.4182 51.0727 38.3019 51.119 38.1763C51.2742 37.8658 51.3803 37.5331 51.4335 37.1901C51.4629 36.9076 51.401 36.6231 51.2569 36.3784C51.3963 36.5094 51.5689 36.5998 51.7559 36.6399C51.943 36.68 52.1374 36.6681 52.3182 36.6056Z" fill="#463E3B"/>
<path d="M35.7152 114.927C38.5383 114.927 40.8269 114.086 40.8269 113.05C40.8269 112.013 38.5383 111.172 35.7152 111.172C32.8921 111.172 30.6035 112.013 30.6035 113.05C30.6035 114.086 32.8921 114.927 35.7152 114.927Z" fill="#CD9494"/>
<path opacity="0.05" d="M35.714 113.798C37.1542 113.798 38.3216 113.369 38.3216 112.841C38.3216 112.312 37.1542 111.883 35.714 111.883C34.2739 111.883 33.1064 112.312 33.1064 112.841C33.1064 113.369 34.2739 113.798 35.714 113.798Z" fill="black"/>
<path d="M30.6008 112.637C30.6008 112.637 36.234 115.767 40.8242 113.055C40.8242 113.055 40.1992 123.906 37.0681 124.949H32.898C32.898 124.949 29.3508 117.638 30.6008 112.637Z" fill="#FF7361"/>
<path d="M40.1282 92.751C41.5629 97.9925 35.4467 112.924 35.4467 112.924C35.4467 112.924 22.5833 103.183 21.1486 97.9438C20.46 95.427 20.7994 92.7396 22.0922 90.473C23.3849 88.2064 25.5251 86.5462 28.042 85.8576C30.5588 85.169 33.2461 85.5084 35.5128 86.8011C37.7794 88.0939 39.4396 90.2341 40.1282 92.751Z" fill="#F55F44"/>
<path opacity="0.1" d="M40.1282 92.751C41.5629 97.9925 35.4467 112.924 35.4467 112.924C35.4467 112.924 22.5833 103.183 21.1486 97.9438C20.46 95.427 20.7994 92.7396 22.0922 90.473C23.3849 88.2064 25.5251 86.5462 28.042 85.8576C30.5588 85.169 33.2461 85.5084 35.5128 86.8011C37.7794 88.0939 39.4396 90.2341 40.1282 92.751Z" fill="black"/>
<path d="M28.0947 85.886C28.0947 85.886 36.1021 97.9742 35.4994 112.95" stroke="#535461" stroke-miterlimit="10"/>
<path d="M42.1722 102.329C42.1722 102.329 34.9034 98.378 35.8308 112.96C35.8308 112.96 41.8881 112.743 44.0371 107.802C44.4569 106.841 44.51 105.759 44.1861 104.762C43.8623 103.765 43.184 102.921 42.2797 102.39L42.1722 102.329Z" fill="#F55F44"/>
<path d="M42.2912 102.353C42.2912 102.353 41.3537 109.922 35.8301 112.96" stroke="#535461" stroke-miterlimit="10"/>
<path opacity="0.05" d="M40.1423 113.403C39.9393 115.899 39.0647 123.65 36.445 124.525H32.7051C32.8248 124.791 32.8979 124.943 32.8979 124.943H37.072C40.1991 123.898 40.8261 113.043 40.8261 113.043C40.6044 113.175 40.3762 113.295 40.1423 113.403Z" fill="black"/>
<path d="M129.728 95.9449H87.2822V120.578H129.728V95.9449Z" fill="#DDE1EC"/>
<path d="M199.44 47.3242C199.446 47.2444 199.446 47.1644 199.44 47.0847C199.367 46.0944 198.426 45.3781 197.492 44.9966C196.559 44.6151 195.516 44.4284 194.69 43.8501C193.294 42.872 192.864 41.0436 192.738 39.3715C192.699 38.852 192.683 38.3326 192.681 37.811C192.679 37.2895 192.713 36.7132 192.762 36.1653C192.843 35.2562 192.977 34.3146 192.965 33.4035C193.012 32.5342 192.845 31.6665 192.478 30.8771C191.65 29.2415 189.791 28.4055 188.071 27.6932C187.409 27.4193 186.731 27.1413 186.013 27.1108C185.254 27.0783 184.515 27.3239 183.797 27.5674C182.656 27.953 181.5 28.4542 180.321 28.7159C179.659 28.8621 178.935 28.7525 178.292 28.9858C177.029 29.4485 176.759 30.5829 176.78 31.8268C176.78 31.9059 176.78 31.983 176.78 32.0622C176.654 31.9465 176.524 31.8369 176.392 31.7314L176.315 31.6705C176.18 31.561 176.036 31.4575 175.883 31.3601L175.81 31.3134C175.5 31.1124 175.175 30.9354 174.838 30.7838L174.787 30.7614C174.618 30.687 174.446 30.6194 174.272 30.5585L174.239 30.5463C173.878 30.4204 173.507 30.3227 173.131 30.2541C171.945 30.0344 170.724 30.1085 169.574 30.4701C168.423 30.8316 167.379 31.4695 166.532 32.328L165.138 33.7485C158.801 32.328 158.516 37.8334 158.516 37.8334L158.563 37.8232L158.547 37.8618C158.691 38.5584 158.874 39.2467 159.093 39.9235L110.153 89.91L105.206 105.243L107.984 104.253L120.675 99.7194L166.118 53.2983C169.519 55.7151 173.054 58.9538 173.054 58.9538C173.054 58.9538 170.862 60.1125 171.674 65.421C172.666 71.9146 171.175 81.1578 171.175 81.1578V87.136L171.455 87.0589C171.421 87.2618 171.384 87.4648 171.349 87.6981C170.887 90.7018 170.829 93.7537 171.175 96.7729C171.926 103.116 174.925 111.777 174.925 111.777C174.925 111.777 176.049 114.821 176.301 117.266C176.34 117.749 176.448 118.224 176.621 118.677C177.186 120.018 177.483 121.456 177.498 122.912C177.498 125.566 177.845 129.549 179.426 133.614C180.694 136.877 181.163 138.789 181.303 139.905C180.404 141.094 179.229 142.39 178.302 142.52C176.552 142.764 173.176 143.007 175.426 145.936C175.505 146.036 175.592 146.129 175.688 146.214C173.979 146.49 172.1 147.098 173.927 149.473C176.177 152.401 189.428 151.059 189.428 151.059C189.428 151.059 189.513 149.436 189.428 147.646C190.357 147.581 190.932 147.522 190.932 147.522C190.932 147.522 191.307 140.446 189.682 139.592C189.381 139.625 189.087 139.697 188.805 139.807C188.631 138.829 188.497 137.614 188.413 136.713L189.057 136.664V126.051C189.057 126.051 188.306 119.464 185.556 116.536C185.206 116.17 184.904 115.761 184.657 115.318C184.678 114.472 184.68 113.289 184.669 111.923C184.779 111.739 184.909 111.567 185.057 111.412C185.057 111.412 186.557 109.586 191.683 97.9925C194.706 91.156 194.032 87.2091 192.971 85.1189C192.768 84.3762 192.241 82.2557 191.551 78.3514C190.676 73.3493 191.676 68.4689 191.676 68.4689C191.676 68.4689 194.923 60.0516 196.427 56.6364C196.775 55.8137 196.92 54.9193 196.849 54.0288C197.241 53.7427 197.429 53.2658 197.598 52.8113L199.138 48.702C199.304 48.2576 199.475 47.795 199.438 47.3221L199.44 47.3242ZM178.523 39.9255C178.69 40.1866 178.877 40.4348 179.081 40.6682C179.081 40.6682 178.852 40.4288 178.472 40.0432C178.49 40.0047 178.507 39.9641 178.523 39.9255ZM170.95 48.3611L175.189 44.0307C176.654 45.37 178.223 46.7377 179.533 47.8639C179.409 48.441 179.243 49.0086 179.038 49.5624C178.47 49.8445 177.719 49.9358 176.806 49.4386C175.359 48.6574 172.689 48.4261 170.95 48.3611Z" fill="url(#paint2_linear)"/>
<path d="M167.538 32.3807C167.538 32.3807 164.395 34.1949 165.363 36.7436C165.363 36.7436 168.628 37.7116 169.957 40.1304C171.286 42.5493 181.566 51.2548 181.566 51.2548L189.062 47.4987C189.062 47.4987 186.455 44.0165 178.206 41.5854C178.206 41.5854 173.336 36.3723 171.649 35.4064C169.963 34.4404 167.538 32.3807 167.538 32.3807Z" fill="#FEBDD5"/>
<path opacity="0.05" d="M167.538 32.3807C167.538 32.3807 164.395 34.1949 165.363 36.7436C165.363 36.7436 168.628 37.7116 169.957 40.1304C171.286 42.5493 181.566 51.2548 181.566 51.2548L189.062 47.4987C189.062 47.4987 186.455 44.0165 178.206 41.5854C178.206 41.5854 173.336 36.3723 171.649 35.4064C169.963 34.4404 167.538 32.3807 167.538 32.3807Z" fill="black"/>
<path d="M111.532 90.391L166.074 33.294C167.363 31.9464 169.135 31.1655 170.999 31.1229C172.863 31.0803 174.668 31.7794 176.018 33.0667C177.365 34.3558 178.146 36.127 178.189 37.9914C178.231 39.8557 177.532 41.6608 176.245 43.0101L121.711 100.115L106.747 105.594L111.532 90.391Z" fill="#F55F44"/>
<path opacity="0.1" d="M173.044 32.054C174.392 33.343 175.172 35.1142 175.215 36.9786C175.258 38.843 174.559 40.648 173.271 41.9973L118.731 99.0942L107.497 103.203L106.738 105.59L121.702 100.111L176.25 43.0342C177.538 41.685 178.237 39.8799 178.194 38.0155C178.151 36.1512 177.371 34.38 176.023 33.0909C174.899 32.0143 173.449 31.3425 171.902 31.1814C172.311 31.4327 172.694 31.725 173.044 32.054Z" fill="white"/>
<path d="M111.532 90.3929L121.711 100.115L109.434 104.608L106.747 105.59L108.45 100.186L111.532 90.3929Z" fill="#EFC8C4"/>
<path d="M108.449 100.184C108.821 100.257 109.177 100.399 109.496 100.604C109.865 100.87 110.133 101.331 110.032 101.773C109.932 102.049 109.789 102.307 109.61 102.538C109.426 102.848 109.315 103.194 109.285 103.553C109.254 103.911 109.305 104.272 109.433 104.608L106.738 105.59L108.449 100.184Z" fill="#727A9C"/>
<path d="M187.129 135.528C187.129 135.528 187.492 140.848 188.097 141.453C188.701 142.058 182.654 142.421 182.654 142.421L183.501 135.521L187.129 135.528Z" fill="#FFB9B9"/>
<path opacity="0.05" d="M187.129 135.528C187.129 135.528 187.492 140.848 188.097 141.453C188.701 142.058 182.654 142.421 182.654 142.421L183.501 135.521L187.129 135.528Z" fill="black"/>
<path d="M188.458 139.639C188.458 139.639 187.612 139.639 184.589 141.211C184.589 141.211 182.533 140.848 181.687 137.946C181.687 137.946 179.148 142.299 177.454 142.541C175.759 142.782 172.496 143.023 174.672 145.927C176.847 148.831 189.666 147.5 189.666 147.5C189.666 147.5 190.031 140.485 188.458 139.639Z" fill="#CBCDDA"/>
<path opacity="0.05" d="M188.458 139.639C188.458 139.639 187.612 139.639 184.589 141.211C184.589 141.211 182.533 140.848 181.687 137.946C181.687 137.946 179.148 142.299 177.454 142.541C175.759 142.782 172.496 143.023 174.672 145.927C176.847 148.831 189.666 147.5 189.666 147.5C189.666 147.5 190.031 140.485 188.458 139.639Z" fill="black"/>
<path d="M186.644 143.75L185.797 146.047L180.235 144.474L180.552 142.194L180.629 141.644L180.832 140.122C180.832 140.122 185.548 138.904 185.548 139.513C185.612 140.012 185.716 140.504 185.858 140.986C186.061 141.729 186.295 142.577 186.467 143.135C186.573 143.509 186.644 143.75 186.644 143.75Z" fill="#FFB9B9"/>
<path d="M183.611 112.213C183.229 112.859 182.799 114.068 183.6 115.578C183.838 116.015 184.129 116.42 184.469 116.783C187.129 119.685 187.856 126.215 187.856 126.215V136.735L186.042 136.875L183.14 137.098L178.777 119.204C178.777 119.204 176.238 106.144 177.448 103.847C178.657 101.55 179.745 87.1604 179.745 87.1604L180.749 86.1214L183.132 83.6538H190.031C190.583 84.0494 191.041 84.5614 191.373 85.1534C192.529 87.069 193.568 91.0525 190.394 98.4065C185.437 109.894 183.986 111.708 183.986 111.708C183.842 111.862 183.716 112.031 183.611 112.213Z" fill="#4C4C78"/>
<path opacity="0.05" d="M183.611 112.213C183.229 112.859 182.799 114.068 183.6 115.578C183.838 116.015 184.129 116.42 184.469 116.783C187.129 119.685 187.856 126.215 187.856 126.215V136.735L186.042 136.875L183.14 137.098L178.777 119.204C178.777 119.204 176.238 106.144 177.448 103.847C178.657 101.55 179.745 87.1604 179.745 87.1604L180.749 86.1214L183.132 83.6538H190.031C190.583 84.0494 191.041 84.5614 191.373 85.1534C192.529 87.069 193.568 91.0525 190.394 98.4065C185.437 109.894 183.986 111.708 183.986 111.708C183.842 111.862 183.716 112.031 183.611 112.213Z" fill="black"/>
<path opacity="0.1" d="M185.867 140.99L180.63 141.644L180.833 140.122C180.833 140.122 185.549 138.904 185.549 139.513C185.615 140.013 185.722 140.507 185.867 140.99Z" fill="black"/>
<path d="M183.26 96.7121C183.26 96.7121 183.56 106.231 183.611 112.214C183.621 113.567 183.611 114.74 183.6 115.578C183.608 116.022 183.575 116.467 183.503 116.905C183.14 117.993 183.866 120.412 183.866 120.412C186.89 128.393 186.044 135.406 186.044 135.406V140.727L180.236 141.453C180.236 141.453 181.204 140.727 178.544 133.713C177.015 129.683 176.685 125.736 176.679 123.105C176.665 121.665 176.377 120.24 175.83 118.908C175.666 118.457 175.565 117.986 175.53 117.508C175.289 115.089 174.201 112.065 174.201 112.065C174.201 112.065 171.299 103.48 170.573 97.191C170.237 94.1979 170.294 91.1738 170.741 88.1953C170.848 87.4382 170.994 86.6871 171.177 85.9449C171.177 85.9449 182.998 78.5056 187.462 83.6478C187.894 84.1501 188.237 84.7224 188.477 85.3402C188.722 85.9499 188.913 86.58 189.047 87.2233C190.419 94.0538 183.26 96.7121 183.26 96.7121Z" fill="#4C4C78"/>
<path d="M182.896 43.7486C186.302 43.7486 189.063 40.9876 189.063 37.5817C189.063 34.1758 186.302 31.4148 182.896 31.4148C179.491 31.4148 176.729 34.1758 176.729 37.5817C176.729 40.9876 179.491 43.7486 182.896 43.7486Z" fill="#FFB9B9"/>
<path d="M179.512 41.4495C179.512 41.4495 182.05 48.5844 179.512 52.3324C176.973 56.0804 187.612 54.871 187.612 54.871L191.723 49.9135C191.723 49.9135 186.886 49.9135 186.65 41.4495C186.415 32.9855 179.512 41.4495 179.512 41.4495Z" fill="#FFB9B9"/>
<path opacity="0.1" d="M191.723 86.5536C190.846 86.8572 189.945 87.0833 189.028 87.2294C187.523 87.4607 185.747 87.4709 184.708 86.5536C184.099 86.0098 182.575 85.9449 180.753 86.1173C176.916 86.4846 171.721 87.9173 170.727 88.1994C170.834 87.4423 170.979 86.6911 171.163 85.9489C171.163 85.9489 182.983 78.5097 187.448 83.6518H190.027C190.578 84.0474 191.036 84.5594 191.368 85.1514C191.593 86.1133 191.723 86.5536 191.723 86.5536Z" fill="black"/>
<path opacity="0.1" d="M186.644 143.75L185.797 146.047L180.235 144.474L180.552 142.194C181.508 144.308 183.137 144.594 183.137 144.594C184.894 143.681 185.917 143.298 186.465 143.137C186.573 143.509 186.644 143.75 186.644 143.75Z" fill="black"/>
<path d="M187.007 143.145C187.007 143.145 186.161 143.145 183.138 144.718C183.138 144.718 181.082 144.355 180.236 141.453C180.236 141.453 177.697 145.806 176.003 146.047C174.308 146.289 171.045 146.526 173.223 149.434C175.4 152.342 188.217 151.007 188.217 151.007C188.217 151.007 188.58 143.991 187.007 143.145Z" fill="#CBCDDA"/>
<path d="M158.319 38.7627C158.319 38.7627 158.593 33.306 164.724 34.7143L163.151 37.6628L158.319 38.7627Z" fill="#FFB9B9"/>
<path d="M186.894 51.3664C186.894 51.3664 180.968 50.3985 179.396 49.189C179.396 49.189 178.178 51.4861 176.009 50.2767C173.84 49.0673 168.754 49.189 168.754 49.189C168.754 49.189 164.521 46.8919 163.681 41.691C163.681 41.691 162.835 38.5476 163.072 37.7014C163.072 37.7014 159.929 34.4364 158.356 38.7891C158.965 41.8127 159.444 41.5712 159.324 43.9881L161.258 49.3088C161.258 49.3088 161.38 51.1229 164.887 53.5418C168.393 55.9606 172.385 59.7087 172.385 59.7087C172.385 59.7087 170.268 60.8572 171.055 66.117C172.015 72.5457 170.573 81.7159 170.573 81.7159V87.6413C170.573 87.6413 182.665 84.1347 184.72 85.9489C186.776 87.763 191.733 85.9489 191.733 85.9489C191.733 85.9489 191.125 83.8932 190.283 78.9358C189.44 73.9783 190.404 69.1406 190.404 69.1406C190.404 69.1406 193.548 60.7963 194.999 57.4115C196.449 54.0268 193.911 49.4305 191.37 47.7381C188.83 46.0457 187.886 47.0624 187.886 47.0624C187.886 47.0624 192.328 50.2787 186.894 51.3664Z" fill="#FEBDD5"/>
<path opacity="0.1" d="M176.226 36.072C176.224 36.3237 176.267 36.5737 176.352 36.8106C176.493 37.08 176.685 37.3192 176.918 37.5148C177.823 38.3995 178.619 39.4507 178.937 40.6763C179.152 41.5063 179.14 42.3748 179.128 43.2332C179.075 46.7052 178.925 50.4533 176.786 53.1765C175.999 54.181 174.984 54.9785 174.033 55.8287C173.899 55.9287 173.799 56.0666 173.744 56.2244C173.718 56.3896 173.75 56.5588 173.834 56.7033C174.276 57.6226 175.208 58.1867 176.09 58.6981C176.496 58.9315 176.918 59.1729 177.385 59.1872C178.485 59.2237 179.211 58.0609 180.212 57.6043C181.669 56.9387 183.302 57.8641 184.749 58.554C185.796 59.0525 186.894 59.4356 188.024 59.6965C189.573 60.0536 191.322 60.1409 192.625 59.2338C193.378 58.7032 193.892 57.8979 194.057 56.9915C194.163 56.401 194.146 55.7151 194.593 55.3153C194.824 55.1124 195.139 55.0231 195.386 54.8405C195.774 54.5564 195.957 54.0795 196.121 53.6229L197.61 49.5502C197.802 49.1199 197.901 48.6538 197.901 48.1825C197.83 47.2024 196.925 46.4901 196.017 46.1127C195.11 45.7353 194.106 45.5506 193.306 44.9763C191.957 44.0063 191.539 42.1942 191.417 40.5363C191.334 39.3977 191.342 38.2543 191.442 37.117C191.59 35.4307 191.918 33.6328 191.168 32.1149C190.366 30.4915 188.568 29.6656 186.906 28.9594C186.267 28.6875 185.609 28.4136 184.915 28.3831C184.181 28.3507 183.467 28.5861 182.773 28.8357C181.669 29.2192 180.54 29.7143 179.41 29.9741C178.771 30.1202 178.069 30.0106 177.452 30.2419C175.185 31.0942 176.226 34.2477 176.226 36.072Z" fill="black"/>
<path d="M176.226 35.8304C176.224 36.0821 176.267 36.3322 176.352 36.5691C176.493 36.8385 176.685 37.0777 176.918 37.2732C177.823 38.158 178.619 39.2091 178.937 40.4348C179.152 41.2648 179.14 42.1333 179.128 42.9917C179.075 46.4637 178.925 50.2117 176.786 52.935C175.999 53.9395 174.984 54.737 174.033 55.5872C173.9 55.6847 173.799 55.8196 173.742 55.9748C173.716 56.14 173.748 56.3092 173.832 56.4537C174.274 57.373 175.206 57.9371 176.088 58.4485C176.494 58.6818 176.916 58.9233 177.383 58.9375C178.483 58.974 179.209 57.8113 180.21 57.3547C181.667 56.6891 183.3 57.6144 184.747 58.3044C185.794 58.8029 186.892 59.1859 188.022 59.4469C189.571 59.804 191.32 59.8913 192.623 58.9842C193.376 58.4535 193.89 57.6483 194.055 56.7419C194.161 56.1513 194.145 55.4655 194.591 55.0657C194.822 54.8628 195.137 54.7735 195.385 54.5909C195.772 54.3068 195.955 53.8299 196.119 53.3733L197.609 49.3006C197.801 48.8702 197.899 48.4041 197.899 47.9329C197.828 46.9528 196.923 46.2405 196.016 45.8631C195.109 45.4856 194.104 45.301 193.305 44.7267C191.955 43.7567 191.537 41.9446 191.415 40.2867C191.332 39.1481 191.34 38.0047 191.44 36.8674C191.588 35.1811 191.917 33.3832 191.166 31.8653C190.364 30.2419 188.566 29.416 186.904 28.7098C186.265 28.4379 185.608 28.1639 184.914 28.1335C184.179 28.101 183.465 28.3364 182.771 28.586C181.667 28.9696 180.538 29.4647 179.408 29.7244C178.769 29.8705 178.067 29.761 177.45 29.9923C175.185 30.8588 176.226 34.0062 176.226 35.8304Z" fill="#B96B6B"/>
<path opacity="0.05" d="M171.352 68.8321C171.352 68.8321 172.315 68.6028 177.153 67.8723C181.991 67.1418 190.455 68.8403 190.455 68.8403" fill="black"/>
</g>
<defs>
<linearGradient id="paint0_linear" x1="118.92" y1="126.118" x2="118.92" y2="0" gradientUnits="userSpaceOnUse">
<stop stop-color="#808080" stop-opacity="0.25"/>
<stop offset="0.54" stop-color="#808080" stop-opacity="0.12"/>
<stop offset="1" stop-color="#808080" stop-opacity="0.1"/>
</linearGradient>
<linearGradient id="paint1_linear" x1="-4261.19" y1="3662.79" x2="-4261.19" y2="2965.83" gradientUnits="userSpaceOnUse">
<stop stop-color="#808080" stop-opacity="0.25"/>
<stop offset="0.54" stop-color="#808080" stop-opacity="0.12"/>
<stop offset="1" stop-color="#808080" stop-opacity="0.1"/>
</linearGradient>
<linearGradient id="paint2_linear" x1="75839.9" y1="99042.2" x2="75839.9" y2="22952.7" gradientUnits="userSpaceOnUse">
<stop stop-color="#808080" stop-opacity="0.25"/>
<stop offset="0.54" stop-color="#808080" stop-opacity="0.12"/>
<stop offset="1" stop-color="#808080" stop-opacity="0.1"/>
</linearGradient>
<clipPath id="clip0">
<rect width="222" height="161.965" fill="white"/>
</clipPath>
</defs>
</svg>
